<?xml version="1.0" encoding="UTF-8"?>
<!DOCTYPE svg PUBLIC "-//W3C//DTD SVG 1.1//EN" "http://www.w3.org/Graphics/SVG/1.1/DTD/svg11.dtd">
<!-- Creator: CorelDRAW X7 -->
<svg xmlns="http://www.w3.org/2000/svg" xml:space="preserve" width="500px" height="166px" version="1.1" style="shape-rendering:geometricPrecision; text-rendering:geometricPrecision; image-rendering:optimizeQuality; fill-rule:evenodd; clip-rule:evenodd"
viewBox="0 0 500 166"
 xmlns:xlink="http://www.w3.org/1999/xlink">
 <defs>
  <style type="text/css">
   <![CDATA[
    .str0 {stroke:#FEFEFE;stroke-width:1.0004}
    .fil1 {fill:none}
    .fil0 {fill:white}
   ]]>
  </style>
 </defs>
 <g id="Warstwa_x0020_1">
  <metadata id="CorelCorpID_0Corel-Layer"/>
  <path class="fil0" d="M63 11l0 3 1 0 0 0 -2 0c0,0 0,0 0,0l0 0 0 -1c0,-1 1,-1 1,-2zm5 1c0,0 0,0 0,0l-3 0c0,2 2,2 3,1l0 1c-2,1 -3,0 -3,-2 0,-3 3,-3 3,0zm-1 0c0,-2 -2,-2 -2,0l2 0zm2 0c0,-1 1,-2 2,-2l0 -1 1 0 0 5 -1 0 0 -1c-1,2 -2,2 -2,0 0,0 0,0 0,-1zm0 0c0,2 1,2 2,1l0 -2c0,0 -1,0 -1,0 -1,0 -1,0 -1,1zm6 0l-2 0 0 0 2 0 0 0zm3 -3c0,1 0,1 0,2l2 0 0 0 -2 0 0 3 -1 0 0 -3 -1 0 0 0 1 0c0,-1 0,-1 1,-2 0,0 0,0 0,0zm3 3l0 0c0,1 0,1 1,2 0,0 0,0 0,0 -1,0 -2,-1 -2,-2 0,-1 1,-1 1,-1 0,0 0,0 0,1l0 0c0,0 0,0 0,0z"/>
  <path class="fil0" d="M82 24c-2,0 -2,-2 0,-2l0 0c-1,0 -1,1 0,1l0 1zm0 -4c-1,0 -1,0 -1,1l0 -1c0,0 0,0 1,0 0,0 0,0 0,0z"/>
  <path class="fil0" d="M80 31c0,0 0,0 0,1l-3 0c0,1 2,1 3,1l0 0c-2,1 -4,0 -4,-2 0,-2 4,-2 4,0zm-1 0c0,-2 -2,-2 -2,0l2 0zm3 2c0,0 0,0 0,0l0 0z"/>
  <path class="fil0" d="M128 45l-2 0 0 -1 1 0 0 -1 1 0 0 2zm2 -1c1,0 2,0 1,-1l0 0c0,0 0,0 0,-1 0,1 1,1 1,1 0,1 -1,1 -2,1l0 0zm142 1c0,0 0,-1 0,-1 0,0 0,0 1,0l-1 1z"/>
  <path class="fil0" d="M460 44c0,0 0,0 1,0 0,0 0,0 0,0 0,0 -1,0 -1,0l0 0zm-439 7l-2 0 0 1 -1 0 0 -1 0 0c0,-1 1,-1 1,-1l0 0 2 0 0 1zm4 0l-1 0 0 1 -1 0 0 -1 -2 0 0 -1 2 0 0 -2 1 0 0 2 1 0 0 1zm2 -4c3,2 2,5 0,7l0 0c2,-2 2,-5 0,-7l0 0zm7 7c-3,0 -2,-1 -2,-3 0,0 -1,0 -1,0l0 -1c0,0 1,0 1,-1 0,-1 0,-2 2,-2l0 0c-1,0 -2,0 -2,1 0,1 1,2 0,2 1,0 -1,4 1,4l1 0 0 0zm1 -5l1 0 1 3 1 -3 1 0 -2 4 -1 0 -1 -4zm7 4l0 -1c0,1 -1,1 -2,1 -1,-1 -1,-2 0,-2 1,-1 2,-1 2,-1 0,0 0,0 0,-1 0,0 -2,0 -2,0l0 0c1,-1 3,-1 3,1l0 3 -1 0zm0 -2c0,0 -2,0 -2,0 0,1 1,1 2,1 0,0 0,0 0,-1l0 0zm2 -2l1 0 0 0c1,-1 3,-1 3,1l-1 0c0,-1 -1,-1 -2,0 0,0 0,0 0,0l0 3 -1 0 0 -4zm9 0l1 0 1 3 1 -3 1 0 -2 4 -1 0 -1 -4zm8 1l0 -1 0 1zm0 1l-3 0 0 0 2 0 1 0zm5 2l-1 0 0 -3c0,-1 -1,-1 -2,0 0,0 0,0 0,0l0 3 -1 0 0 -6 1 0 0 2c1,-1 3,-1 3,1l0 3zm4 1l-2 0 0 -7 2 0 0 0 -2 0 0 7 2 0 0 0zm5 -1l-1 0 0 -1c0,0 -1,1 -1,1 -1,0 -2,-1 -2,-2l0 -2 1 0 0 2c0,1 1,1 1,1 1,0 1,-1 1,-1l0 -2 1 0 0 4zm3 1l-2 0 0 0 2 0 0 -7 -2 0 0 0 2 0 0 7zm3 -1c0,0 0,0 0,0l0 1c0,0 0,0 0,0l0 -1z"/>
  <g>
   <path class="fil0" d="M120 53c-1,0 -3,0 -3,-2l0 -2 -1 0 0 0 1 0 0 -2 1 0 0 2 2 0 0 0 -2 0 0 2c0,1 1,1 2,1l0 1zm1 -4l1 0 0 0c1,-1 2,-1 2,1l0 0c0,-2 -2,-1 -2,0l0 3 -1 0 0 -4zm6 0l-1 0 0 0 2 0 0 3 1 0 0 1 -3 0 0 -1 1 0 0 -3zm6 2c0,2 -1,2 -3,1l0 -5 1 0 0 2c0,-1 2,-1 2,1 0,0 0,0 0,1zm0 0c0,-2 -1,-2 -2,-1l0 2c1,0 2,0 2,-1zm5 2l-1 0 0 -1c-1,1 -3,1 -3,-1l0 -2 1 0 0 2c0,1 1,1 2,1 0,0 0,-1 0,-1l0 -2 1 0 0 4zm4 0c-1,0 -2,0 -2,-2l0 -2 -1 0 0 0 1 0 0 -2 0 0 0 2 2 0 0 0 -2 0 0 2c0,1 2,1 2,1l0 1zm5 -3c0,1 0,1 0,1l-3 0c0,1 2,1 3,1l0 0c-2,1 -4,1 -4,-1 0,-3 4,-3 4,-1zm-1 0c0,-1 -2,-1 -2,0l2 0zm4 4c-1,-1 -2,-4 -1,-6 0,0 1,1 1,1 -1,2 -1,3 1,5l-1 0zm36 0l-1 0 0 -8 1 0 0 8zm5 0l-1 0 0 -8 1 0 0 8zm4 -6l-2 0 0 -1 2 0 0 5 1 0 0 1 -3 0 0 -1 2 0 0 -4zm5 6c-2,-2 -2,-5 0,-7l0 1c-1,2 -1,3 0,5 0,0 0,1 0,1zm9 -6c1,2 0,4 -2,6l0 0c2,-2 2,-4 1,-6 0,0 0,0 1,0zm4 6l-1 0 0 -8 1 0 0 8zm5 0l-1 0 0 -8 1 0 0 8zm5 0c-3,-2 -3,-5 0,-7l0 0c-2,2 -2,5 0,7l0 0zm2 -5l0 0 0 0c1,0 2,-1 2,0 0,1 0,2 1,4l-1 0 0 -3c0,-1 -1,-1 -1,0 0,0 0,0 -1,0l0 3 0 0 0 -4zm26 1l-2 0c0,0 0,0 0,-1l2 0 0 1zm0 1l-4 0 4 0zm0 -2l1 0 1 3 2 -3 0 0 -1 4 -1 0 -2 -4zm13 0c1,1 -1,3 -2,2 -1,1 0,1 1,1 2,0 2,2 -1,2 0,0 -1,0 -1,-1 0,0 0,0 0,-1 -1,0 0,-1 0,-1 -1,-1 0,-3 2,-2l1 0 0 0 0 0zm-3 4c0,1 2,1 3,0 0,-1 -2,0 -2,-1 0,1 -1,1 -1,1zm8 -3c0,1 0,1 0,1l-3 0c0,1 2,1 3,1l0 0c-2,1 -4,1 -4,-1 0,-3 4,-3 4,-1zm-1 0c0,-1 -2,-1 -2,0l2 0zm5 3c-1,0 -2,0 -2,-2l0 -2 -2 0 0 0 2 0 0 -2 0 0 0 2 2 0 0 0 -2 0 0 2c0,1 1,1 2,1l0 1zm5 0l-1 0 0 -2 -2 0 0 2 -1 0 2 -6 0 0 2 6zm-1 -2l-1 -3 -1 3 2 0zm5 2c-1,0 -2,0 -2,-2l0 -2 -1 0 0 0 1 0 0 -2 0 0 0 2 2 0 0 0 -2 0 0 2c0,1 1,1 2,1l0 1zm5 0c-1,0 -3,0 -3,-2l0 -2 -1 0 0 0 1 0 0 -1c0,0 0,0 1,0l0 1c0,0 0,0 0,0l0 0 0 2c0,1 1,1 2,1l0 1zm2 0l-1 0 0 -1 1 1zm5 -4l-1 0 0 0 2 0 0 3 1 0 0 1 -4 0 0 -1 2 0 0 -3zm6 2c0,2 -1,2 -3,1l0 -5 1 0 0 2c0,-1 2,-1 2,1 0,0 0,0 0,1zm0 0c0,-2 -1,-2 -2,-1l0 2c1,0 2,0 2,-1zm5 2l-1 0 0 -1c-1,1 -3,1 -3,-1l0 -2 1 0 0 2c0,1 1,1 2,1 0,0 0,-1 0,-1l0 -2 1 0 0 4zm4 0c-1,0 -2,0 -2,-2l0 -2 -1 0 0 0 1 0 0 -2 0 0 0 2 2 0 0 0 -2 0 0 2c0,1 1,1 2,1l0 1z"/>
  </g>
  <path class="fil0" d="M345 48l0 1 -1 0c0,0 1,-1 1,-1zm2 -1c3,2 3,5 0,7l0 0c2,-2 2,-5 0,-7 0,0 0,0 0,0zm8 3c0,0 -1,1 -1,2l1 1 -1 0 0 -1c-1,1 -3,1 -3,-1 0,-1 0,-1 1,-1 -1,-1 -1,-1 -1,-2 1,-2 3,-1 3,1 0,0 -1,0 -1,1l1 1c0,0 0,-1 0,-1l1 0zm-4 1c0,1 2,1 2,1l-1 -2c0,0 -1,1 -1,1zm2 -3c0,-1 -2,0 -1,1 1,0 1,0 1,-1zm6 2c0,0 0,1 0,2l0 1 0 0 -1 -1c-1,1 -3,1 -3,-1 0,-1 1,-1 1,-1 0,-1 -1,-1 0,-2 0,-2 3,-1 2,1 0,0 0,0 -1,1l1 1c0,0 0,-1 0,-1l1 0zm-3 1c0,1 1,1 2,1l-1 -2c-1,0 -1,1 -1,1zm2 -3c0,-1 -3,0 -1,1 0,0 1,0 1,-1zm3 -1l0 2 0 0 0 -2 0 0zm2 0l0 2 -1 0 0 -2 1 0zm5 4c0,2 -2,2 -3,1l0 -5 0 0 0 2c1,-1 3,-1 3,1 0,0 0,0 0,1zm-1 0c0,-2 -1,-2 -2,-1l0 2c2,0 2,0 2,-1zm5 2l0 0 0 -1c-1,0 -1,1 -2,1 -1,0 -1,-1 -1,-2l0 -2 1 0 0 2c0,1 1,1 1,1 0,0 1,-1 1,-1l0 -2 0 0 0 4zm5 0c-1,0 -3,0 -3,-2l0 -2 -1 0 0 0 1 0 0 -2 1 0 0 2 2 0 0 0 -2 0 0 2c0,1 1,1 2,1l0 1zm4 0c-1,0 -2,0 -2,-2l0 -2 -1 0 0 0 1 0 0 -2 1 0 0 2 1 0 0 0 -1 0 0 2c0,1 1,1 1,1l0 1zm5 -2c0,1 0,2 -2,2 -1,0 -2,-2 -1,-3 0,-2 3,-2 3,1zm-1 0c0,-2 -1,-2 -2,-1 0,2 2,3 2,1zm2 -2l1 0 0 0c0,0 0,0 0,0 0,0 0,0 0,0 0,1 0,1 0,1l0 3 -1 0 0 -4zm3 3l0 1 0 0 0 -1c0,0 0,0 0,0zm46 1l-1 0 0 -2 -1 0c0,0 0,0 0,0l1 0 0 -1c0,0 0,0 0,0l1 3zm4 0c-1,0 -2,0 -2,-2l0 -2 -2 0 0 0 2 0 0 -2 0 0 0 2 2 0 0 0 -2 0 0 2c0,1 1,1 2,1l0 1zm5 0c-2,0 -3,0 -3,-2l0 -2 -1 0 0 0 1 0 0 -2 1 0 0 2 2 0 0 0 -2 0 0 2c0,1 1,1 2,1l0 1zm1 -4l1 0 0 0c1,-1 2,-1 2,1l0 0c0,-1 -1,-1 -2,0 0,0 0,0 0,0l0 3 -1 0 0 -4zm6 0l-1 0 0 0 1 0 0 3 2 0 0 1 -4 0 0 -1 2 0 0 -3z"/>
  <g>
   <path class="fil0" d="M458 51c0,2 -1,2 -3,1l0 -5 1 0 0 2c0,-1 2,-1 2,1 0,0 0,0 0,1zm0 0c0,-2 -1,-2 -2,-1l0 2c1,0 2,0 2,-1zm5 2l-1 0 0 -1c-1,1 -3,1 -3,-1l0 -2 1 0 0 2c0,1 1,1 2,1 0,0 0,-1 0,-1l0 -2 1 0 0 4zm4 0c-1,0 -2,0 -2,-2l0 -2 -1 0 0 0 1 0 0 -2 0 0 0 2 2 0 0 0 -2 0 0 2c0,1 1,1 2,1l0 1zm5 -3c0,1 0,1 0,1l-3 0c0,1 2,1 3,1l0 0c-2,1 -4,1 -4,-1 0,-3 4,-3 4,-1zm-1 0c0,-1 -2,-1 -2,0l2 0zm4 4c-2,-2 -2,-5 0,-7l0 0c-1,2 -1,5 1,7l-1 0zm-464 5c0,0 0,0 0,0l0 0zm5 3c-1,0 -3,0 -3,-1l0 -2 -1 0 0 -1 1 0 0 -1 1 0 0 1 2 0 0 1 -2 0 0 2c0,1 1,1 2,1l0 0zm4 2c-3,-2 -3,-6 0,-8l0 1c-2,2 -2,4 0,6l0 1zm2 -6l0 0 0 1c1,-1 3,-1 3,1l0 2 -1 0 0 -2c0,-1 -1,-2 -1,-1 0,0 -1,0 -1,1l0 2 0 0 0 -4zm8 2c0,0 0,0 0,0l-3 0c0,2 1,2 2,2l0 0c-1,1 -3,0 -3,-2 0,-2 4,-3 4,0zm-1 0c0,-2 -2,-2 -2,0l2 0zm5 -2l0 4 -1 0 -1 -2 0 2 -1 0 -1 -4 1 0 0 4 1 -3 1 0 0 3 1 -4 0 0zm6 4c0,-1 0,-2 0,-2 1,0 2,0 2,0 0,0 0,-1 0,-1 0,-1 -2,0 -2,0l0 -1c1,0 3,0 3,1l0 2 -1 0c0,0 0,0 0,0l0 -1c0,0 -2,0 -2,1 0,0 0,0 0,0 0,0 0,0 0,1zm5 0c-1,-2 0,-4 2,-6l0 1c-2,1 -2,3 -1,5 0,0 -1,0 -1,0zm3 -4l1 0 1 3 2 -3 0 0 -1 4 -1 0 -2 -4zm6 -2c3,3 2,6 0,8l0 -1c2,-2 2,-4 0,-6l0 -1zm5 0c2,3 2,6 0,8l-1 -1c2,-2 2,-4 0,-6l1 -1zm11 6c-2,1 -3,0 -3,-2 0,-2 1,-2 3,-2l0 1c-3,-2 -3,4 0,2l0 1zm4 2c-3,-2 -3,-6 0,-8l0 1c-2,2 -2,4 0,6l0 1zm1 -6l1 0 1 3 2 -3 0 0 -1 4 -1 0 -2 -4zm6 -2l0 1c0,0 0,0 0,0 0,0 0,0 0,0l0 -1zm0 8l0 0 0 -1c0,0 0,0 0,0l0 1zm22 -6l1 0 0 1c1,-1 2,-1 2,1l0 2 -1 0 0 -2c0,-1 0,-2 -1,-1 -1,1 0,1 0,2 -1,-1 -1,-2 -1,-2l0 -1zm8 2c0,0 0,0 0,0l-3 0c0,1 1,2 1,2 0,0 0,0 -1,0 0,0 -1,-1 -1,-2 0,-2 4,-3 4,0zm-1 0c0,-2 -2,-2 -2,0l2 0zm6 -2l0 1 -1 0 0 -1 1 0zm-3 2l0 -1 1 0 0 1c0,0 -1,0 -1,0zm-1 1l-1 -3 1 0 0 2 0 1zm15 -3c0,-1 0,-1 1,-2l0 1c0,0 0,0 -1,1l0 0zm6 0l1 0 -1 0zm2 -2c2,2 2,3 2,5l-1 -1c0,-1 0,-2 -1,-3l0 -1zm5 0c2,3 2,5 0,8l0 -1c1,-2 1,-4 -1,-6l1 -1zm4 0c3,3 3,6 0,8l0 -1c2,-2 2,-4 0,-6l0 -1z"/>
  </g>
  <g>
   <path class="fil0" d="M148 56c2,0 2,1 2,3 0,1 1,1 1,1l0 0c0,0 -1,0 -1,1 0,2 0,3 -2,3l0 -1c1,0 1,0 1,-1 0,0 0,-2 1,-2 -1,0 0,-3 -1,-3l-1 0 0 -1zm4 2l1 0 1 3 1 -3 1 0 -1 4 -1 0 -2 -4zm8 4l0 0c-2,1 -4,-1 -3,-2 1,0 2,0 2,0l1 2zm0 0l0 0 0 0 0 0zm-1 -3c-1,0 -1,0 -2,0l0 -1c1,0 1,0 2,0l0 1zm0 1c0,0 -1,0 -1,1 0,1 1,1 2,0l0 0c0,0 0,0 0,1l-1 -2zm29 0c0,-1 2,-2 3,-2l1 0 0 6 -1 0 0 -3c-1,2 -2,2 -2,0 -1,0 -1,0 -1,-1zm1 0c0,2 1,2 2,1l0 -2c-1,-1 -2,0 -2,1zm7 2l0 0 0 0c-1,1 -3,1 -3,-1l0 -3 1 0 0 3c0,1 1,1 1,0 0,0 1,0 1,0l0 -3 0 0 0 4zm5 -2c0,0 0,0 0,0l-3 0c0,2 2,2 3,2l0 0c-2,1 -4,0 -4,-2 0,-2 4,-3 4,0zm-1 0c0,-2 -2,-2 -2,0l2 0zm2 -2l1 0 0 1c1,-1 3,-1 3,1l-1 0c0,-2 -1,-1 -2,0l0 2 -1 0 0 -4zm8 0l-1 4c-1,1 -1,2 -3,2l0 -1c1,0 2,0 2,-1l-2 -4 1 0 1 3 1 -3 1 0zm5 3c0,1 -3,1 -4,1l0 -1c1,1 3,1 3,0 0,-1 -3,-1 -3,-3 0,-1 2,-1 3,-1l0 1c0,0 -2,-1 -2,0 0,1 3,1 3,3zm4 -1c0,0 0,0 0,0l-3 0c0,2 2,2 3,2l0 0c-2,1 -3,0 -3,-2 0,-2 3,-3 3,0zm-1 0c0,-2 -2,-2 -2,0l2 0zm4 -3l-2 0 0 0 2 0 0 5 2 0 0 0 -4 0 0 0 2 0 0 -5zm6 3l-3 0c0,1 1,1 1,2 0,0 0,0 -1,0 -1,-1 -1,-4 2,-4 0,0 0,1 0,1 -1,-1 -2,0 -2,1l2 0 1 0zm14 0c0,3 -3,3 -4,1 0,0 1,0 1,0 0,2 3,1 2,-1 0,-1 -1,-1 -1,-1l0 -1c1,0 2,1 2,2zm1 -2l1 0 0 1c1,-1 2,-1 2,1l0 0c0,-2 -2,-1 -2,0l0 2 -1 0 0 -4zm8 4l-1 0 0 -1 -2 0 -1 1 0 0 1 -5 1 0 2 5zm-1 -2l-1 -2 -1 2 2 0zm3 -3l-1 0 0 0 2 0 0 5 1 0 0 0 -3 0 0 0 1 0 0 -5zm5 0l-1 0 0 0 1 0 0 5 2 0 0 0 -4 0 0 0 2 0 0 -5zm5 7c-2,-3 -2,-6 0,-8l1 1c-2,2 -2,4 -1,6 0,0 0,0 0,1zm4 -7l0 1 -1 0 0 -1 1 0zm1 0l0 1 -1 0 0 -1 1 0zm5 3c0,-2 -1,-2 -2,0l0 0c-1,1 -1,1 -1,1l0 -4 1 0 0 2c0,-1 2,-1 2,0 0,1 0,1 0,1l0 0zm4 0l0 0 0 -2 1 0 0 2 -1 0zm-2 0l-1 0 0 -2 1 0 0 2 0 0zm7 2c-1,0 -2,0 -2,-1l0 -2 -1 0 0 -1 1 0 0 -1 0 0 0 1 2 0 0 1 -2 0 0 2c0,1 1,1 2,1l0 0zm5 0c-1,0 -3,0 -3,-1l0 -2 -1 0 0 -1 1 0 0 -1 1 0 0 1 2 0 0 1 -2 0 0 2c0,1 1,1 2,1l0 0zm4 -2c0,3 -4,3 -3,-1 0,-1 3,-1 3,1zm0 0c0,-2 -2,-2 -3,0 0,2 3,2 3,0zm1 -2l1 0 0 1c1,-1 3,-1 3,1l0 2 -1 0 0 -2c0,-1 -1,-2 -2,-1l0 3 -1 0 0 -4zm6 -1l0 1 -1 0 0 -1 1 0zm2 0l0 1 -1 0 0 -1 1 0z"/>
  </g>
  <g>
   <path class="fil0" d="M302 56c3,3 3,6 0,8l0 -1c2,-2 2,-4 0,-6l0 -1zm4 7c1,0 2,0 1,-1 -1,-1 1,-2 1,0 0,1 -1,2 -2,2l0 -1zm26 -1l-1 0c0,0 1,-1 1,-1l0 1zm4 -2l-3 0 0 -1 3 0 0 1zm0 1l-3 0 3 0zm5 -1c0,1 0,2 -2,2 -2,0 -2,-2 -2,-4 1,0 1,-1 2,-1 2,0 2,1 2,3zm-1 0c0,-1 0,-1 0,-1l-2 2c0,0 1,1 1,1 1,0 1,-2 1,-2zm-2 0c0,0 0,0 0,0l2 -2c0,0 0,-1 -1,-1 -1,0 -1,2 -1,3zm4 3c1,0 2,0 1,-1 0,-1 1,-2 1,0 0,1 -1,2 -2,2l0 -1zm8 -1l-1 0 0 0c-1,1 -2,1 -2,-1l0 -3 0 0 0 3c0,1 1,1 2,0 0,0 0,0 0,0l0 -3 1 0 0 4zm4 0l0 0 -3 -2 3 -2 0 0 -2 2 2 2zm5 -2c0,0 0,0 0,0l-1 1c1,-2 0,-3 -2,-1l0 2c1,0 1,0 2,0l0 0c-1,0 -1,0 -1,0l-1 0 0 0c0,1 0,1 0,1l0 -5 0 0 0 1c1,-1 3,-1 3,0 0,1 0,1 0,1zm7 -3l-1 0 0 0 2 0 0 2c-1,0 -1,0 -1,0l0 -2zm7 3c0,0 0,0 0,0l0 0c-1,0 -1,0 -1,0l0 0c0,-2 -2,-2 -2,-1 0,0 -1,0 -1,0 1,-1 4,-1 4,1zm1 -2l0 0 0 1c1,-1 3,-1 3,1l0 2 -1 0 0 -2c0,-1 -1,-2 -1,-1 0,0 -1,0 -1,1l0 1c0,0 0,0 0,0l0 -3zm7 1c1,1 -1,3 -2,2 -1,1 1,1 1,1 2,0 2,2 0,2 -1,0 -2,0 -2,-1 0,-1 0,-1 0,-1 0,0 0,-1 0,-2 0,-1 1,-2 2,-2l2 0 0 1 -1 0zm-2 4c0,1 2,1 2,0 0,-1 -1,-1 -2,-1 0,0 0,0 0,1zm7 -1c-1,0 -3,0 -3,-1l0 -2 -1 0 0 -1 1 0 0 -1 1 0 0 1 2 0 0 1 -2 0 0 2c0,1 1,1 2,1l0 0zm4 0l0 0 0 -2c0,-1 -1,-2 -2,-1 0,0 0,0 0,1l0 2 -1 0 0 -5 1 0 0 2c1,-1 2,-1 2,1l0 2zm2 1c1,0 2,0 1,-1 -1,-1 1,-2 1,0 0,1 -1,2 -2,2l0 -1zm7 -1c-1,1 -3,0 -3,-1l0 -3 1 0 0 3c0,1 1,1 1,0l1 1zm12 1l0 1 0 -1zm15 -1l0 0c-1,0 -3,1 -3,-1 0,0 1,-1 1,-1 0,0 1,0 2,0 0,0 0,-1 0,-1 -1,0 -2,0 -2,0l0 -1c1,0 3,0 3,1l0 3 -1 0zm0 -2c-1,0 -2,0 -2,1 0,1 1,1 2,0l0 -1zm2 -2l1 0 0 1c1,-1 2,-1 2,1l0 0c0,-2 -2,-1 -2,0l0 2 -1 0 0 -4z"/>
  </g>
  <g>
   <path class="fil0" d="M440 59c1,1 -1,3 -2,2 -1,1 0,1 1,1 2,0 2,2 -1,2 0,0 -1,0 -1,-1 0,-1 0,-1 0,-1 -1,0 0,-1 0,-2 -1,-1 0,-2 2,-2l1 0 0 1 0 0zm-3 4c0,1 2,1 3,0 0,-1 -2,-1 -2,-1 0,0 -1,0 -1,1zm8 -3l-4 0 0 -1 4 0 0 1zm0 1l-4 0 4 0zm4 -1l0 0c0,0 0,0 0,1 0,0 0,0 0,0 0,-2 -1,-3 -2,-1l0 2 0 0c0,0 0,0 -1,0l0 0c0,0 0,0 0,0l0 -4 0 0 1 1c0,-1 2,-1 2,0 0,1 0,1 0,1zm2 0l0 -4 2 0 0 1 -1 0 0 2c0,0 -1,0 -1,1zm6 -1l0 -1 1 0 0 1 -1 0zm-2 0l0 -1 1 0 0 1 -1 0zm6 1l0 0 0 -3 -1 0 0 -1 2 0 0 4c0,0 0,0 -1,0zm4 2c0,-1 1,-1 1,0 0,0 -1,0 -1,0zm5 -5l-1 0 0 0 2 0 0 5 1 0 0 0 -4 0 0 0 2 0 0 -5zm5 7c-2,-2 -2,-6 0,-8l1 1c-2,2 -2,4 0,6l-1 1zm5 -5c1,1 -1,3 -2,2 0,1 1,1 2,1 2,0 1,2 -1,2 -1,0 -2,0 -2,-1 0,-1 0,-1 1,-1 -1,0 -1,-1 0,-2 -1,-1 0,-2 2,-2l1 0 0 1 -1 0zm-2 4c0,1 2,1 2,0 1,-1 -1,-1 -2,-1 0,0 0,0 0,1zm5 -7c2,3 2,6 0,8l-1 -1c2,-2 2,-4 0,-6l1 -1zm5 8l0 0 0 -6c0,0 0,1 0,1l0 5zm-481 4c0,1 -1,3 -2,2l0 0c1,0 1,-1 1,-2l0 0 1 0 0 0 0 0zm-2 3c1,0 2,0 2,1 0,2 -2,2 -3,1l0 0c0,0 2,0 2,0 1,-1 -1,-1 -1,-1 0,0 0,-1 0,-1zm4 -5c3,2 2,5 0,8l0 -1c2,-2 2,-5 0,-7l0 0zm6 7l-1 0 0 -8 1 0 0 8zm4 0l-1 0 0 -8 1 0 0 8zm6 -1c-1,0 -3,0 -3,-2l0 -2 -1 0 0 0 1 0 0 -1 1 0 0 1 2 0 0 0 -2 0 0 2c0,1 1,1 2,1l0 1zm2 -1c-1,-2 0,-4 2,-5l0 0c-1,1 -2,3 -2,4 0,0 0,1 0,1zm28 -4c0,-1 0,-1 1,-1l0 0c0,1 0,1 -1,1l0 0z"/>
  </g>
  <g>
   <path class="fil0" d="M61 68c0,1 0,2 -1,2 0,1 -1,1 -1,0 -2,2 2,0 2,2 0,1 -1,2 -2,2l0 -1c1,0 1,0 1,0 1,-1 -1,-1 -1,-1 -1,-1 -1,-1 -1,-2 0,0 0,0 0,0 -1,-1 0,-3 2,-2l1 0 0 0 0 0zm2 -2c3,2 2,5 0,8l0 -1c2,-2 2,-5 0,-7l0 0zm5 0c2,2 2,5 0,8l-1 -1c2,-2 2,-5 0,-7l1 0zm4 0c2,0 1,1 1,2 0,1 1,1 2,1l0 1c-1,0 -2,0 -2,1 0,1 1,2 -1,2l0 0c0,0 1,0 1,-1 0,-1 -1,-2 1,-2 -2,-1 0,-3 -2,-3l0 0 0 -1zm3 2l1 0 1 3 2 -3 0 0 -1 4 -1 0 -2 -4zm6 4c-1,0 -1,-2 0,-2l0 0c0,0 0,1 0,1l0 1zm0 -4l0 1 0 -1 0 0 0 0zm64 -1l-1 0 0 -1 2 0 0 5 1 0 0 1 -3 0 0 -1 1 0 0 -4zm6 3c0,0 0,0 0,0l-2 0c0,2 1,1 2,1l0 1c-1,0 -3,0 -3,-2 0,-3 3,-3 3,0zm0 -1c0,-1 -2,-1 -2,0l2 0zm5 3c-2,0 -3,0 -3,-2 0,-2 1,-3 3,-2l0 1c-3,-2 -4,4 0,2l0 1zm4 0c-1,0 -2,0 -2,-2l0 -2 -1 0 0 0 1 0 0 -1 0 0 0 1 2 0 0 0 -2 0 0 2c0,1 2,1 2,1l0 1zm1 -1c0,-1 0,-2 0,-2l0 2zm21 0l1 0 -1 0zm5 3c-3,-3 -3,-6 0,-8l0 0c-2,2 -2,5 0,7l0 1zm3 -8l0 2 -1 0 0 -2 1 0zm1 0l0 2 0 0 0 -2 0 0zm4 1l-2 0 0 -1 2 0 0 5 1 0 0 1 -3 0 0 -1 2 0 0 -4z"/>
  </g>
  <path class="fil0" d="M200 72l0 -1c-1,2 -3,0 -2,-1 1,-1 1,-1 2,-1 0,0 0,0 0,0 -1,-1 -2,-1 -2,0l0 -1c1,0 3,-1 3,1l0 3 -1 0zm0 -2c0,0 -2,0 -2,1 0,1 2,0 2,0l0 -1zm6 0c0,2 -2,2 -4,2l0 -6 1 0 0 2c1,-1 2,-1 3,1 0,0 0,0 0,1zm-1 0c0,-2 -1,-2 -2,-1l0 2c1,1 2,0 2,-1zm2 0c-1,-1 0,-2 1,-2 0,0 0,0 0,0 0,1 -1,1 -1,1 0,0 0,1 0,1zm30 0c0,2 -3,3 -3,1 0,-1 0,-1 0,-2 0,3 3,3 3,1 0,-2 -2,-2 -3,-1 1,0 1,-1 1,-1 1,-1 2,0 2,2zm1 -2l1 0 0 1c1,-2 3,-2 3,0l-1 0c0,-1 -1,-1 -2,0l0 3 -1 0 0 -4zm7 6c-2,-3 -2,-6 0,-8l1 0c-2,2 -2,5 0,7l-1 1zm6 -2l-1 0 0 -1c-1,1 -3,1 -3,-1l0 -2 1 0 0 2c0,2 1,1 1,1 1,0 1,0 1,-1l0 -2 1 0 0 4zm4 -3l-3 0 0 0 3 0 0 0zm0 2l-3 0 0 -1 3 0 0 1zm1 0c0,-2 0,-5 3,-4 -1,0 -1,0 -1,0 -1,0 -1,1 -1,2 0,1 -1,1 -1,2zm35 -1c0,0 0,0 0,0l-2 0c0,-1 -1,-1 -1,-1 0,-2 3,-2 3,1zm-2 1c0,0 1,0 2,0l0 1c-1,0 -1,0 -2,0 0,-1 0,-1 0,-1zm2 -2c0,-1 -2,-1 -3,0l3 0zm1 -1l1 0 0 0c1,-1 3,-1 3,1l0 3 -1 0 0 -3c0,-1 -1,-1 -2,0l0 3 -1 0 0 -4zm8 0c1,2 -1,3 -2,2 -1,1 1,1 1,1 2,0 2,3 -1,3 0,0 -1,-1 -1,-2 0,0 0,0 0,0 0,-1 0,-2 0,-2 -1,-1 1,-3 2,-2l1 0 0 0 0 0zm-3 4c0,1 2,1 3,1 0,-1 -2,-1 -2,-1 0,0 -1,0 -1,0zm8 0c-1,0 -3,0 -3,-2l0 -2 -1 0 0 0 1 0 0 -1 1 0 0 1 2 0 0 0 -2 0 0 2c0,1 1,1 2,1l0 1zm4 0l0 0 0 -3c0,-1 -1,-1 -2,0 0,0 0,0 0,0l0 3 -1 0 0 -6 1 0 0 2c1,-1 2,-1 2,1l0 3zm20 -6c3,2 3,5 0,8l0 -1c2,-2 2,-5 0,-7l0 0z"/>
  <path class="fil0" d="M336 73c-2,0 -2,-1 -2,-2 0,-1 0,-1 -1,-1l0 -1c1,0 1,0 1,-1 0,-1 0,-2 2,-2l0 1c-2,0 0,2 -2,3 2,0 0,3 2,3l0 0 0 0zm1 -5l1 0 1 3 1 -3 1 0 -1 4 -1 0 -2 -4zm8 4l0 -1c-2,2 -4,0 -3,-1 1,-1 2,-1 3,-1 0,0 0,0 -1,0 0,-1 -1,-1 -2,0l0 -1c1,0 3,-1 3,1l0 3 0 0zm0 -2c-1,0 -2,0 -2,1 0,1 1,0 2,0l0 -1zm2 -2l0 0 0 1c1,-2 3,-2 3,0l-1 0c0,-1 -1,-1 -2,0l0 3 0 0 0 -4zm33 -1c0,0 0,0 0,0l0 0c0,-1 0,-1 -1,-1l2 0 0 2 -1 -1zm3 6c1,0 1,-1 1,-1 -1,-1 1,-2 1,-1 0,2 -1,2 -2,2l0 0zm7 -5l0 4c0,1 -2,2 -3,1l0 0c1,0 2,0 2,-1l0 -4 -2 0 0 0 3 0zm5 1l-3 0 0 0 3 0 0 0zm0 2l-3 0 0 -1 3 0 0 1zm5 -1c0,2 -2,2 -4,2l0 -6 1 0 0 2c1,-1 2,-1 3,1 0,0 0,0 0,1zm-1 0c0,-2 -1,-2 -2,-1l0 2c1,1 2,0 2,-1zm23 2c-1,0 -2,0 -2,-2l0 -2 -2 0 0 0 2 0 0 -1 0 0 0 1 2 0 0 0 -2 0 0 2c0,1 1,1 2,1l0 1zm1 -4l1 0 0 1c1,-2 3,-2 3,0l-1 0c0,-1 -1,-1 -2,0l0 3 -1 0 0 -4zm8 2c0,3 -4,2 -3,-1 0,-2 3,-2 3,1zm0 0c0,-2 -2,-2 -3,-1 0,3 3,3 3,1zm3 -3l-1 0 0 -1 1 0 0 5 2 0 0 1 -4 0 0 -1 2 0 0 -4zm5 6l-1 0 0 -8 1 0 0 8zm33 -4c0,0 0,0 0,0 0,0 -1,-1 -1,-1 1,1 1,1 1,1l0 0zm1 -1l1 0 0 0c1,-1 2,-1 2,1l0 3 -1 0 0 -3c0,-1 0,-1 -1,0l0 3 -1 0 0 -4zm8 4c-1,0 -3,0 -3,-2l0 -2 -1 0 0 0 1 0 0 -1 1 0 0 1 2 0 0 0 -2 0 0 2c0,1 1,1 2,1l0 1z"/>
  <path class="fil0" d="M489 68c1,1 1,2 0,2 0,1 -1,1 -2,0 0,1 1,1 2,1 2,0 1,3 -1,3 -1,0 -2,-1 -2,-2 0,0 0,0 1,0 -1,-1 -1,-2 0,-2 -1,-1 0,-3 2,-2l1 0 0 0 -1 0zm-2 4c0,1 2,1 2,1 1,-1 -1,-1 -2,-1 0,0 0,0 0,0zm7 -2c0,0 0,0 0,0l-2 0c0,2 1,1 2,1l0 1c-2,0 -3,0 -3,-2 0,-2 2,-3 3,-2 0,1 0,2 0,2zm0 -1c0,-1 -2,-1 -2,0l2 0zm-489 7l-1 0 0 0 2 0 0 5 1 0 0 0 -3 0 0 0 1 0 0 -5zm7 3c0,0 0,0 0,1l-3 0c0,1 1,1 2,1l0 0c-1,1 -3,1 -3,-2 0,-2 4,-2 4,0zm-1 0c0,-1 -2,-2 -2,0l2 0zm5 2l0 -2c0,-1 -1,-1 -1,-1 0,1 0,1 0,1l0 2 -1 0 0 -2c0,-1 0,-1 -1,-1 0,1 0,1 0,1l0 2 -1 0 0 -4 1 0 0 1c0,0 0,-1 1,-1 0,0 1,1 1,1 0,0 0,-1 0,-1 1,0 1,1 1,1l0 3 0 0zm5 -2c0,0 0,0 0,1l-3 0c0,1 1,1 2,1l0 0c-1,1 -3,1 -3,-2 0,-2 4,-2 4,0zm-1 0c0,-1 -2,-2 -2,0l2 0zm2 -2l0 0 0 1c1,0 1,-1 2,-1 0,0 0,0 1,1 -1,1 -1,2 -1,3l0 0 0 -2c0,-1 -1,-1 -1,-1 0,0 -1,1 -1,1l0 2 0 0 0 -4zm43 1c1,0 0,1 0,2 0,0 -1,0 -2,0 -1,1 1,1 1,1 2,0 2,2 0,2 -1,0 -2,0 -2,-1 0,0 0,-1 1,-1 -1,0 -1,-1 0,-1 -1,-2 0,-3 1,-3l2 0 0 1 -1 0zm-2 4c0,1 2,1 2,0 0,-1 -1,-1 -2,-1 0,0 0,1 0,1zm7 -3c0,0 0,0 0,1l-3 0c0,1 2,1 3,1l0 0c-2,1 -3,1 -3,-2 0,-2 3,-2 3,0zm-1 0c1,-1 -2,-2 -2,0l2 0zm6 2c-2,1 -3,1 -3,-1l0 -2 -1 0 0 -1 1 0 0 -1 1 0 0 1 2 0 0 1 -2 0 0 2c0,1 1,1 2,1l0 0zm5 0l-1 0 0 -1 -3 0 0 1 -1 0 2 -5 1 0 2 5zm-2 -1l-1 -3 0 3 1 0zm3 1c0,-1 0,-2 0,-3l-1 0 0 -1 1 0 0 -1 0 0 0 4c0,0 0,1 0,1z"/>
  <g>
   <path class="fil0" d="M111 81c-1,1 -3,1 -3,-1 0,0 1,0 1,0 0,1 1,1 2,1l0 0zm4 -2c0,0 0,0 0,1l-3 0c0,1 2,1 3,1l0 0c-2,1 -3,1 -3,-2 0,-2 3,-2 3,0zm0 0c0,-1 -2,-2 -3,0l3 0zm4 4c-3,-2 -3,-5 0,-8l0 1c-2,2 -2,5 0,7l0 0zm3 -7l0 2 -1 0 0 -2 1 0zm2 0l0 2 -1 0 0 -2 1 0zm5 0c-2,0 -2,0 -2,2l2 0 0 1 -2 0 0 2 -1 0 0 -2 -1 0 0 -1 1 0c0,-2 1,-3 3,-2l0 0zm4 3c0,4 -4,3 -3,0 0,-2 3,-2 3,0zm0 0c0,-1 -2,-2 -3,0 0,2 3,3 3,0zm2 -2l0 0 0 1c1,-1 3,-1 3,1l-1 0c0,-2 -1,-1 -2,0l0 2 0 0 0 -4zm5 -1l0 2 0 0 -1 -2 1 0zm2 0l0 2 -1 0 0 -2 1 0zm2 -1c3,3 3,6 0,8l0 0c2,-2 2,-5 0,-7l0 -1zm5 0c2,3 2,6 0,8l-1 0c2,-2 3,-5 0,-7l1 -1zm5 8l0 0 0 -8 0 0 0 8zm5 0l-1 0 0 -8 1 0 0 8zm3 -2l0 0c0,0 0,0 0,0l0 -5 0 0c0,1 0,4 0,5zm21 -2c0,0 0,0 0,1l-1 0 0 -1 0 0c0,0 0,0 0,-1l0 -1c1,1 1,1 1,2zm-1 2c0,0 1,0 1,0l-1 0zm2 -4l1 0 0 1c1,-1 3,-1 3,1l-1 0c0,-2 -1,-1 -2,0l0 2 -1 0 0 -4zm8 0l-1 4c-1,1 -1,2 -3,2l0 -1c1,1 1,0 2,-1l-2 -4 1 0 1 4 1 -4 1 0zm5 3c0,2 -3,2 -4,1l0 0c1,0 3,0 3,-1 0,-1 -3,-1 -3,-2 0,-2 2,-2 3,-2l0 1c0,0 -2,-1 -2,0 0,2 3,1 3,3zm4 -1c0,0 0,0 0,1l-3 0c0,1 2,1 3,1l0 0c-2,1 -4,1 -4,-2 0,-2 4,-2 4,0zm-1 0c0,-1 -2,-2 -2,0l2 0zm4 -3l-2 0 0 0 2 0c0,0 0,1 0,1l0 -1zm-1 5l-1 0 0 0 1 0 0 0zm32 -5l0 2 0 0c0,-1 0,-2 0,-2l0 0zm2 0l-1 2 0 0 0 -2 1 0zm3 2l-2 0 0 -1 2 0 0 4 2 0 0 0 -4 0 0 0 2 0 0 -3zm3 -1l0 0 0 1c1,-1 3,-1 3,1l0 2 -1 0 0 -2c0,-1 -1,-1 -1,-1l-1 1 0 2 0 0 0 -4z"/>
  </g>
  <g>
   <path class="fil0" d="M251 79c0,2 -1,3 -3,2l0 2 -1 0 0 -6 1 0 0 1c1,-1 2,-1 3,1 0,0 0,0 0,0zm-1 0c0,-1 -1,-1 -2,0l0 2c1,0 2,0 2,-2zm3 2c-1,0 -1,0 -1,-1l0 -3 1 0 0 3c0,1 0,1 0,1l0 0zm37 -5l0 0 0 0c0,0 0,0 0,0zm0 5l1 0 -1 0zm5 2c-3,-2 -3,-5 0,-8l0 1c-2,2 -2,5 0,7l0 0zm5 -4c0,2 -1,3 -3,2l0 -5 1 0 0 2c0,-1 2,-1 2,1 0,0 0,0 0,0zm0 0c0,-1 -1,-1 -2,0l0 2c1,0 2,0 2,-2zm2 -4c3,3 3,6 0,8l0 0c2,-2 2,-5 0,-7l0 -1zm6 8l-1 0 0 -8 1 0 0 8zm18 -6c0,0 1,1 1,2l0 2 0 0 0 -2c0,-1 -1,-1 -1,-1l0 -1zm6 2c0,0 0,0 0,1l-3 0c0,1 2,1 3,1l0 0c-2,1 -4,1 -4,-2 0,-2 4,-2 4,0zm-1 0c0,-1 -2,-2 -2,0l2 0zm6 -2l-1 4 -1 0 0 -2 -1 2 -1 0 0 -4 0 0 1 4 0 -3 1 0 1 3 0 -4 1 0zm6 1l-1 0 0 -1 2 0 0 4 1 0 0 0 -3 0 0 0 1 0 0 -3zm41 2l2 -3 0 0 -1 4c0,0 0,-1 -1,-1zm6 1l0 0c-2,2 -4,-1 -2,-2 0,0 1,0 2,0 0,0 0,-1 -1,-1 0,0 -1,0 -2,0l0 0c2,-1 3,-1 3,1l0 2 0 0zm0 -1c-1,0 -2,-1 -2,0 0,1 1,1 2,0l0 0zm2 -3l1 0 0 1c1,-1 2,-1 2,1l-1 0c1,-2 -1,-1 -1,0l0 2 -1 0 0 -4zm12 4l-3 0 0 -5 1 0 0 5 2 0 0 0zm15 -1c0,-2 1,-3 2,-3l1 0 0 6 -1 0 0 -2c-1,1 -2,1 -2,-1 0,0 0,0 0,0zm0 -1c0,2 1,2 2,1l0 -2c-1,0 -2,0 -2,1zm8 2l-1 0 0 0c-1,1 -3,1 -3,-1l0 -3 1 0 0 3c0,1 1,1 1,0 1,0 1,0 1,0l0 -3 1 0 0 4zm4 -2c0,0 0,0 0,1l-3 0c0,1 2,1 3,1l0 0c-2,1 -3,1 -3,-2 0,-2 3,-2 3,0zm-1 0c1,-1 -1,-2 -2,0l2 0z"/>
  </g>
  <path class="fil0" d="M432 77l1 0 0 1c1,-1 3,-1 3,1l-1 0c0,-1 -1,-1 -1,-1 -1,1 -1,1 -1,1l0 2 -1 0 0 -4zm5 6c0,0 0,0 -1,0l0 -1c1,0 1,0 1,0l0 1zm0 -5l-1 -1 1 0c0,1 0,1 0,1zm38 -1c1,0 1,1 1,2l0 0c0,-1 -1,-1 -1,-1 0,0 0,0 0,-1zm6 4l0 0 -1 -1 -2 0 0 1 -1 0 2 -5 1 0 1 5zm-1 -1l-1 -3 -1 3 2 0zm3 -4l-1 0 0 0 2 0 0 5 1 0 0 0 -3 0 0 0 1 0 0 -5zm5 0l-1 0 0 0 2 0 0 5 1 0 0 0 -3 0 0 0 1 0 0 -5zm5 7c-2,-2 -2,-5 0,-8l1 1c-2,2 -2,5 0,7l-1 0zm-489 4l0 0 0 1c1,-1 1,-1 2,-1 1,0 1,1 1,1l0 3 -1 0 0 -3c0,-1 -1,-1 -1,0 0,0 -1,0 -1,0l0 3 0 0 0 -4zm8 2c0,2 -2,2 -3,2l0 2 -1 0 0 -6 1 0 0 1c1,-1 2,-1 2,0 1,0 1,1 1,1zm-1 0c0,-2 -1,-2 -2,-1l0 2c1,1 2,0 2,-1zm5 2l-1 0 0 -1c0,1 -1,1 -1,1 -1,0 -1,-1 -1,-1l0 -3 0 0 0 3c0,1 1,1 2,0 0,0 0,0 0,0l0 -3 1 0 0 4zm4 0c-1,0 -2,0 -2,-1l0 -2 -1 0 0 -1 1 0 0 -1 1 0 0 1 1 0 0 1 -1 0 0 2c0,1 1,1 1,0l0 1zm4 2l-2 0 0 -8 2 0c0,0 0,1 0,1l-1 0 0 6 1 0 0 1zm37 -2l-1 0 0 -1c0,-1 0,-1 0,-2l0 -1 1 0 -1 2 1 2zm5 0c-2,0 -3,0 -3,-1l0 -2 -1 0 0 -1 1 0 0 -1 1 0 0 1 2 0 0 1 -2 0 0 2c0,1 1,1 2,0l0 1zm3 2l-2 0 0 -1 2 0 0 -6 -2 0 0 -1 2 0 0 8zm3 -1c0,0 1,-1 0,-1 0,-1 2,-2 2,0 0,1 -1,1 -2,1l0 0zm9 -4l-1 0 0 -1 1 0 0 1zm20 3l0 -1c-1,1 -2,1 -3,1 1,-1 1,-1 1,-1 0,1 1,1 1,0 0,0 1,0 1,0l0 -1c0,0 -1,0 -1,0 0,0 0,0 0,0l1 0c0,-1 0,-1 0,-1 0,0 0,0 0,-1 0,0 1,1 1,1l0 3 -1 0z"/>
  <g>
   <path class="fil0" d="M103 87l1 0 0 1c1,-2 2,-1 2,1l0 0c0,-2 -2,-1 -2,-1l0 3 -1 0 0 -4zm8 2c0,0 0,0 0,0l-3 0c0,2 2,2 3,1l0 1c-2,0 -4,0 -4,-2 0,-3 4,-3 4,0zm-1 0c0,-2 -2,-2 -2,0l2 0zm5 2l-1 -1c-1,2 -3,0 -2,-1 1,0 2,0 2,0 0,-1 0,-1 0,-1 0,-1 -1,0 -2,0l0 -1c1,0 3,0 3,1l0 3 0 0zm-1 -2c0,0 -1,0 -1,1 0,1 1,0 1,0l0 -1zm4 -4l0 2 -1 0 0 -2 1 0zm1 0l0 2 0 0 -1 -2 1 0zm3 0c1,2 2,3 1,5 0,0 0,0 0,0 0,-1 0,-3 -2,-5l1 0zm12 1c-2,0 -2,0 -2,2l1 0c-1,0 -2,0 -2,0l-1 0 0 0 1 0c0,-2 1,-3 3,-3l0 1zm12 7c-3,-3 -2,-6 0,-8l0 0c-2,3 -2,5 0,7l0 1zm5 -2l0 0 0 -1c-1,2 -3,1 -3,0l0 -3 1 0 0 3c0,1 1,1 1,0 0,0 0,0 1,0l0 -3 0 0 0 4zm5 -3l-4 0 4 0zm0 2l-4 0 4 0zm5 -2c0,2 -1,3 -2,3 -2,0 -2,-2 -2,-4 0,-1 1,-1 2,-1 1,0 2,1 2,2zm-1 0c0,0 0,0 0,0l-2 2c0,0 0,1 1,1 1,0 1,-2 1,-3zm-3 0c0,1 0,1 0,1l3 -2c0,0 -1,-1 -1,-1 -1,0 -2,2 -2,2zm28 -2l-1 0 0 -1 2 0 0 5 1 0 0 1 -3 0 0 -1 1 0 0 -4zm7 3c0,0 0,0 0,0l-3 0c0,2 2,2 3,1l0 1c-2,0 -4,0 -4,-2 0,-3 4,-3 4,0zm-1 0c0,-2 -2,-2 -2,0l2 0zm2 -2l1 0 0 1c1,-1 2,-1 2,0l0 3 0 0 0 -3c0,-1 -1,-1 -2,0l0 3 -1 0 0 -4zm8 1c1,1 -1,2 -3,2 0,1 1,0 2,0 2,0 2,3 -1,3 0,0 -2,0 -2,-1 0,-1 1,-1 1,-1 -1,-1 0,-1 0,-2 -1,-1 0,-2 2,-2l1 0 0 1 0 0zm-3 4c0,0 2,0 2,0 1,-1 -1,-1 -1,-1 -1,0 -1,0 -1,1zm5 -4l-1 0 1 0zm34 5c-2,0 -2,-1 -2,-3 0,-1 -1,-1 -1,-1l0 -1c0,0 1,0 1,0 0,-2 0,-3 2,-3l0 1c-3,0 0,2 -2,3 2,0 0,3 1,3l1 0 0 1zm1 -6l1 0 1 3 1 -3 1 0 -2 4 -1 0 -1 -4z"/>
  </g>
  <g>
   <path class="fil0" d="M245 91l0 -1c-1,2 -3,0 -2,-1 1,0 2,0 2,0 0,-1 0,-1 0,-1 0,-1 -1,0 -2,0l0 -1c1,0 3,0 3,1l0 3 -1 0zm0 -2c0,0 -2,0 -2,1 0,1 2,0 2,0l0 -1zm2 -2l1 0 0 1c1,-2 3,-1 3,1l-1 0c0,-2 -1,-1 -2,-1l0 3 -1 0 0 -4zm44 3c0,1 0,1 -1,1 0,0 0,-1 0,-1 1,0 1,0 0,-1 0,0 0,0 0,-1 1,1 1,1 1,2zm-1 -4l1 0 0 1 0 -1c0,0 0,0 -1,0zm6 2l-4 0 4 0zm0 2l-4 0 4 0zm5 -3l-1 4 -1 0 0 -2 -1 2 -1 0 -1 -4 1 0 1 3 0 -2 1 0 1 2 0 -3 1 0zm6 -1l-1 0 0 -1 2 0 0 5 1 0 0 1 -3 0 0 -1 1 0 0 -4zm18 0l0 0c0,0 0,0 0,-1l1 0 0 5 1 0 0 1 -2 0c0,0 0,0 0,-1l0 0 0 -4zm7 4c0,1 -3,1 -3,1l0 -1c0,0 2,1 2,0 0,-1 -2,0 -2,-2 0,-1 2,-1 2,-1l0 1c0,0 -2,-1 -2,0 0,1 3,0 3,2zm4 -3c0,1 0,1 -1,2l0 1 -1 0 0 -2c1,0 1,0 1,-1 0,-1 -1,-1 -1,-1l0 -1c1,0 2,1 2,2zm5 0l0 4 -1 0 -1 -2 -1 2 0 0 -1 -4 1 0 0 3 1 -2 0 0 1 2 1 -3 0 0z"/>
  </g>
  <path class="fil0" d="M395 87l0 4 -1 0 -1 -2 0 2 -1 0 -1 -4 1 0 0 3 1 -2 0 0 1 2 1 -3 0 0zm9 4c-2,0 -3,0 -3,-2 0,-2 1,-2 3,-2l0 1c-1,-1 -3,0 -3,1 0,2 2,2 3,1l0 1zm13 -1c0,0 0,1 0,1 0,-1 0,-1 0,-2 0,0 0,1 0,1zm5 -1c0,0 0,0 0,0l-3 0c0,2 2,2 3,1l0 1c-2,0 -3,0 -3,-2 0,-3 3,-3 3,0zm-1 0c0,-2 -2,-2 -2,0l2 0zm5 1c0,1 -2,1 -3,1l0 -1c1,0 3,1 3,0 0,-1 -3,0 -3,-2 0,-1 2,-1 3,-1l0 1c0,0 -2,-1 -2,0 0,1 2,0 2,2zm5 1c-1,0 -3,0 -3,-1l0 -2 -1 0 0 -1 1 0 0 -1 1 0 0 1 2 0 0 1 -2 0 0 2c0,1 1,1 2,0l0 1zm4 2c-3,-3 -3,-6 0,-8l0 0c-2,3 -2,5 0,7l0 1zm44 0l0 0 0 -9 0 0 0 9zm3 -4c0,-1 1,-2 2,-2l0 -2 1 0 0 6 0 0 0 -1c-1,1 -3,1 -3,0 0,0 0,-1 0,-1zm0 0c0,2 2,2 2,1l0 -2c0,0 0,0 0,0 -1,0 -2,0 -2,1zm8 0c0,1 -1,2 -2,2 -2,0 -2,-1 -2,-3 1,-2 4,-2 4,1zm-1 0c0,-2 -2,-2 -2,-1 -1,3 2,3 2,1zm5 2c-1,0 -3,0 -3,-2 0,-2 2,-2 3,-2l0 1c-1,-1 -2,0 -2,1 0,2 1,2 2,1l0 1zm3 0c-1,0 -1,-1 -1,-1l0 -3 0 0 0 3c0,0 0,0 0,0 0,1 1,1 1,1zm-490 7c0,1 0,1 0,1l-3 0c0,1 1,1 2,1l0 1c-1,0 -2,0 -3,-1 0,-1 0,-1 0,-2 0,-2 4,-2 4,0zm-1 0c0,-1 -2,-1 -2,0l2 0zm2 -1l0 0 0 0c1,0 1,0 2,0 1,0 1,0 1,1l0 3 -1 0 0 -3c0,-1 -1,-1 -1,0 0,0 0,0 -1,0l0 3 0 0 0 -4zm7 4c-1,0 -2,0 -2,-2l0 -2 -1 0 0 0 1 0 0 -1 1 -1 0 2 1 0 0 0 -1 0 0 2c0,1 1,1 1,1l0 1z"/>
  <g>
   <path class="fil0" d="M21 99c0,-2 2,-3 3,-2l1 0 0 5 -1 0 0 -2c-1,1 -2,1 -2,0 -1,-1 -1,-1 -1,-1zm1 0c0,1 1,2 2,0l0 -2c-1,0 -2,0 -2,2zm39 -1c0,1 0,1 0,1l-1 0 0 -1 0 0c0,0 0,0 0,-1 0,0 0,0 0,0 1,0 1,0 1,1zm-2 2c1,0 1,0 2,0l0 1c-1,0 -1,0 -2,0l0 -1zm6 1c-1,0 -3,0 -3,-2 0,-2 2,-3 3,-2l0 0c-3,-1 -3,5 0,3l0 1zm5 0c-1,0 -2,0 -2,-2l0 -2 -2 0 0 0 2 0 0 -1 0 -1 0 2 2 0 0 0 -2 0 0 2c0,1 1,1 2,1l0 1zm5 -2c0,3 -5,2 -4,-1 1,-2 4,-2 4,1zm-1 0c0,-2 -2,-2 -2,-1 -1,3 2,3 2,1zm2 -2l1 0 0 0c1,-1 2,-1 2,1l0 0c0,-2 -2,-1 -2,0l0 3 -1 0 0 -4zm5 3c0,-1 0,-2 0,-3l0 3zm15 1l0 -1c0,0 0,0 0,1l0 -1c0,0 0,0 0,0l0 -1 0 0 0 -1 0 0c0,0 0,0 0,-1 0,0 0,0 0,0 1,0 1,0 1,1l0 3 -1 0zm6 -2c0,2 -2,2 -4,1l0 -5 1 0 0 2c1,-1 2,-1 3,1 0,0 0,0 0,1zm-1 0c0,-2 -1,-2 -2,-1l0 2c1,0 2,0 2,-1zm5 -1c0,1 0,1 0,1l-3 0c0,1 2,1 3,1l0 1c-2,0 -3,0 -3,-2 0,-3 3,-3 3,-1zm0 0c0,-1 -2,-1 -3,0l3 0zm3 -2l-1 0 0 -1 1 0 0 5 2 0 0 1 -4 0 0 -1 2 0 0 -4zm6 6l-2 0 0 -7 2 0 0 0 -2 0 0 7 2 0 0 0zm1 -4l0 -1 0 1zm31 1l-2 0 0 1 0 0 0 -1 -2 0 0 -1 2 0 0 -1 0 0 0 1 2 0 0 1zm5 -2l-1 4 -1 0 0 -2 -1 2 -1 0 0 -4 0 0 1 3 0 -2 1 0 1 2 0 -3 1 0zm6 0l-1 0 0 0 2 0 0 3 1 0 0 1 -3 0 0 -1 1 0 0 -3zm3 2c0,-1 1,-2 1,-2 0,1 0,2 0,2 0,1 0,1 0,2 -1,-1 -1,-2 -1,-2zm25 -4l0 2 -1 0 0 -2 1 0zm3 0c3,2 3,5 0,7l0 0c2,-2 2,-5 0,-7l0 0z"/>
  </g>
  <path class="fil0" d="M194 101c0,0 1,0 0,-1 0,-1 1,-1 1,0 0,1 0,2 -1,2l0 -1zm7 -2c0,2 -2,2 -4,2l0 -1c1,0 3,0 3,-1 0,-1 -2,-1 -2,-2 0,-2 2,-2 3,-2l0 1c-1,0 -3,0 -3,1 0,1 3,1 3,2zm35 3l-1 0 0 -8 1 0 0 8zm6 -5l-1 4 0 0 -1 -2 -1 2 -1 0 0 -4 0 0 1 3 1 -2 0 0 1 2 0 -3 1 0zm9 4l-1 0 0 -3c0,-1 -1,-1 -2,0 0,0 0,0 0,0l0 3 -1 0 0 -6 1 0 0 2c1,-1 3,-1 3,1l0 3zm3 -1c-2,2 -4,-2 0,-2l0 1c-1,0 -2,0 -2,1 0,0 2,0 2,0l0 0zm0 -3c-1,0 -2,0 -2,0l0 0c1,0 1,0 2,0l0 0zm37 4l0 0 0 -1c-1,1 -1,1 -2,1 0,0 0,-1 0,-1 1,0 1,0 1,-1l0 -2 1 0 0 4zm5 0c-1,0 -3,0 -3,-2l0 -2 -1 0 0 0 1 0 0 -1 1 -1 0 2 2 0 0 0 -2 0 0 2c0,1 1,1 2,1l0 1zm4 -3c0,1 0,1 0,1l-2 0c0,1 1,1 2,1l0 1c-2,0 -3,0 -3,-2 0,-3 3,-3 3,-1zm0 0c0,-1 -2,-1 -2,0l2 0zm4 4c-3,-2 -3,-5 0,-7l0 0c-2,2 -2,5 0,7l0 0zm3 -7l0 2 -1 0 0 -2 1 0zm2 0l0 2 -1 0 0 -2 1 0zm18 4c0,0 0,-1 0,-1l0 0c-1,-1 -1,-1 -1,-1 2,0 1,1 1,2l0 0zm4 0l-2 0 0 -1 2 0 0 1zm3 -3l-1 0 0 -1 2 0 0 5 1 0 0 1 -3 0 0 -1 1 0 0 -4zm6 5l0 -1c-2,2 -4,0 -2,-1 0,-1 1,-1 2,-1 0,0 0,0 0,-1 -1,0 -2,0 -2,0l0 0c1,-1 3,-1 3,1l0 3 -1 0zm0 -2c-1,0 -2,0 -2,1 0,1 2,0 2,0l0 -1zm6 0c0,2 -2,2 -4,1l0 -5 1 0 0 2c1,-1 2,-1 2,1 0,0 1,0 1,1zm-1 0c0,-2 -1,-2 -2,-1l0 2c1,0 2,0 2,-1zm3 2c-2,-1 -2,-2 -1,-4 0,2 0,3 1,4z"/>
  <g>
   <path class="fil0" d="M380 102l1 0 -1 0zm3 -5l0 0c1,0 1,0 1,0 1,0 2,0 2,1l0 3 -1 0 0 -3c0,-1 -1,-1 -1,0 -1,0 -1,0 -1,0l0 3 0 0 0 -2c0,-1 0,-1 0,-2zm7 1c0,1 0,1 0,1l-2 0c0,1 1,1 2,1l0 1c-1,0 -3,0 -3,-2 0,-3 3,-3 3,-1zm0 0c0,-1 -2,-1 -2,0l2 0zm5 -1l0 4 -1 0 -1 -2 -1 2 0 0 -1 -4 1 0 0 3 1 -2 0 0 1 2 1 -3 0 0zm6 0l0 0 0 0c1,-1 3,-1 3,1l0 0 -1 0c0,-1 0,-1 -1,0 0,0 0,0 -1,0l0 3 0 0 0 -4zm18 -2c3,2 3,5 0,7l0 0c2,-2 2,-5 0,-7l0 0zm4 0c2,0 2,1 2,2 0,1 1,1 1,1l0 1c0,0 -1,0 -1,0 0,2 1,3 -2,3l0 0c1,0 2,0 2,-1l0 -2c0,0 0,-1 0,-1 -1,0 1,-3 -1,-3l-1 0 0 0zm8 1c-1,-1 -2,-1 -2,1l0 0 2 0 0 1 -2 0 0 3 0 0 0 -3 -2 0 0 -1 2 0c0,-1 0,-2 1,-2 1,0 1,0 1,0l0 1zm5 3c0,1 -1,2 -2,2 -2,0 -2,-2 -2,-3 1,-2 4,-2 4,1zm-1 0c0,-2 -2,-2 -2,-1 -1,3 2,3 2,1zm2 -2l0 0c0,0 1,1 1,1l0 3 -1 0 0 -4zm37 0l0 0c0,0 0,0 0,0l1 0 0 3 1 0 0 1 -3 0c0,-1 0,-1 0,-1l1 0 0 -3zm3 0l1 0 0 0c0,0 1,0 1,0 1,0 2,0 2,1l0 3 -1 0 0 -3c0,-1 -1,-1 -2,0 0,0 0,0 0,0l0 3 -1 0 0 -4zm12 4l0 -3c0,-1 0,-1 0,0 0,0 0,0 -1,0l0 3 0 0 0 -3c0,-1 0,-1 -1,0 0,0 0,0 0,0l0 3 -1 0 0 -4 1 0 0 0c0,0 0,0 1,0 0,0 0,0 0,0 1,0 1,0 1,0 1,0 1,0 1,1l0 3 -1 0zm3 -6c2,2 2,5 0,7l-1 0c2,-2 3,-5 0,-7l1 0zm4 3l-1 0 0 -1 1 0c0,0 0,1 0,1zm-491 8c1,0 1,1 1,2l0 0c0,-1 -1,-1 -1,-2zm5 6c-3,-2 -3,-5 0,-8l0 1c-2,2 -2,4 0,7l0 0zm1 -6l1 0 1 4 2 -4 0 0 -1 4 -1 0 -2 -4zm8 4l0 0c-1,0 -1,0 -2,0 -1,0 -1,-1 0,-2 0,0 1,0 2,0 0,0 0,-1 0,-1 -1,0 -2,0 -2,0l0 -1c1,0 3,0 3,1l0 3 -1 0zm0 -2c-1,0 -2,0 -2,1 0,1 1,1 1,1 0,0 1,-1 1,-1l0 -1zm2 -2l1 0 0 1c1,-1 2,-1 2,1l0 0c0,-2 -1,-1 -2,-1 0,0 0,1 0,1l0 2 -1 0 0 -4zm13 4l-1 0 -2 -1c1,0 1,1 2,1l1 0zm-3 -2l0 2 -1 0 0 -2c0,0 0,0 1,0zm15 4l-2 0 0 -1c0,0 1,0 1,0l0 0 1 0 0 1zm6 -2l-1 0 -1 -1c0,0 1,0 1,0l1 1zm-3 0l0 0 -1 0c0,0 0,0 1,0l0 0zm6 2l-2 0 0 -1 1 0 0 -5c1,0 1,-1 1,-1l0 7zm2 -1c1,0 2,0 1,-1 -1,-1 1,-2 1,0 0,1 -1,2 -2,2l0 -1zm8 -1l-3 0 0 -5 3 0 0 1 -3 0 0 1 3 0 0 1 -3 0 0 2 3 0 0 0zm4 -2l-3 0 0 -1 3 0 0 1zm0 1l-3 0 0 -1 3 0 0 1zm5 -1c0,0 0,0 0,0l-3 0c0,2 2,2 3,2l0 0c-2,1 -4,0 -4,-2 0,-2 4,-3 4,0zm-1 0c0,-2 -2,-2 -2,0l2 0zm6 0c0,-1 1,-1 2,-2 0,1 0,1 0,1 -1,1 -1,2 0,3 0,0 0,0 0,0 -1,0 -2,-1 -2,-2z"/>
  </g>
  <path class="fil0" d="M95 106c2,0 2,1 2,2l0 0c0,-1 -1,-2 -2,-1 0,0 0,0 0,-1zm7 0l-1 4c-1,1 -1,2 -3,2l0 -1c1,0 1,0 2,-1l-2 -4 1 0 1 4 1 -4 1 0zm4 3c0,2 -2,1 -3,1l0 -1c0,1 3,1 3,0 0,-1 -3,-1 -3,-3 0,-1 2,-1 3,-1l0 1c-1,0 -2,-1 -2,0 0,1 2,1 2,3zm5 -1c0,0 0,0 0,0l-3 0c0,2 2,2 3,2l0 0c-2,1 -4,0 -4,-2 0,-2 4,-3 4,0zm-1 0c0,-2 -2,-2 -2,0l2 0zm3 -3l-1 0 0 0 2 0 0 5 1 0 0 0 -3 0 0 0 1 0 0 -5zm5 5c-2,0 -2,-1 -2,-3 0,1 1,2 2,3zm25 0l-1 0 0 -1 -3 0 0 1 -1 0 1 -1c0,0 0,-1 1,-1 0,0 0,-1 0,-1l0 1 1 0 0 -2c0,0 0,0 0,-1l2 5zm2 -5l-1 0 0 0 2 0 0 5 1 0 0 0 -3 0 0 0 1 0 0 -5zm4 0l-1 0 0 0 2 0 0 5 1 0 0 0 -3 0 0 0 1 0 0 -5zm6 7c-3,-2 -2,-5 0,-8l0 1c-2,2 -2,4 0,7l0 0zm6 -2l-1 0 -1 -1 -1 1 -1 0 1 -2 -1 -2 1 0 1 2 1 -2 1 0 -2 2 2 2zm22 -2c0,1 0,2 -1,2 0,0 0,-1 0,-1 0,0 0,-1 0,-2l0 0c0,0 0,-1 0,-2 1,1 1,2 1,3zm1 3c1,0 2,0 1,-1 0,-1 1,-2 1,0 0,1 0,2 -2,2l0 -1zm8 -5l-1 0 0 4 -1 0 0 -4 -2 0 0 -1 4 0 0 1zm4 4l0 0 -3 -2 3 -2 0 0 -2 2 2 2zm5 0l-3 0 0 -5 3 0 0 1 -2 0 0 1 2 0 0 1 -2 0 0 2 2 0 0 0z"/>
  <g>
   <path class="fil0" d="M235 109c1,0 1,0 1,1l-1 -1zm7 -3l-2 0 0 4 0 0 0 -4 -2 0 0 -1 4 0 0 1zm4 2l-1 0 0 2 -1 0 0 -2 -2 0 0 0 2 0 0 -2 1 0 0 2 1 0 0 0zm5 0l-2 0 0 2 0 0 0 -2 -2 0 0 0 2 0 0 -2 0 0 0 2 2 0 0 0zm2 -4c2,3 2,6 0,8l-1 0c2,-2 2,-5 0,-7l1 -1zm6 8c-2,0 -2,-1 -2,-3 0,-1 0,-1 -1,-1l0 0c2,0 1,-2 2,-3 0,0 0,1 0,1 0,1 0,2 -1,2 2,0 0,3 2,3l0 0 0 1zm4 -2l0 0 -1 0 0 0c0,0 0,0 1,0zm14 2l0 0c0,0 0,0 0,0l0 0 0 0zm9 -2l0 0c-2,1 -4,-1 -2,-2 0,0 1,0 2,0 0,-1 0,-1 -1,-1 1,0 1,0 1,-1 0,0 1,1 1,1l0 3 -1 0zm0 -2c-1,0 -2,0 -2,1 0,1 1,1 2,0l0 -1zm2 -2l1 0 0 1c1,-1 2,-1 2,1l0 0c0,-2 -2,-1 -2,0l0 2 -1 0 0 -4zm13 6l-5 0 5 0zm4 -4l-4 0 4 0zm0 1l-4 0 4 0zm4 1l-3 0 0 -5 3 0 0 1 -2 0 0 1 2 0 0 1 -2 0 0 2 2 0 0 0zm23 0l0 0 -1 -4 -1 3 0 0 -1 -3 0 1c0,0 -1,0 -1,-1l0 -1 1 0 1 3 1 -3 1 0 0 5zm4 -2l-3 0 3 0zm0 1l-3 0 3 0zm4 3l-2 0 0 -8 2 0 0 1 -1 0 0 6 1 0 0 1zm5 0l-2 0 0 -1 1 0 0 -6 -1 0 0 -1 2 0 0 8zm2 -1c1,0 1,0 1,-1 -1,-1 1,-2 1,0 0,1 -1,2 -2,2l0 -1zm4 -3c0,-1 0,-1 1,-2 0,0 0,1 0,1 -1,1 0,4 2,2l0 0c0,0 0,0 0,0l0 3 0 0 0 -2c-1,1 -3,1 -3,-1 0,0 0,0 0,-1zm26 2l-1 0 0 0c0,0 0,0 0,-1l1 1zm5 0l-1 0 -2 -2 0 2 -1 0 0 -2c0,0 0,0 1,-1l0 0c0,0 0,0 0,0l0 0c0,0 0,0 0,0l0 1 2 -2 1 0 -2 2 2 2zm7 -5l-2 0 0 0 2 0 0 5 1 0 0 0 -3 0 0 0 2 0 0 -5zm6 3c0,0 0,0 0,0l-3 0c0,2 2,2 3,2l0 0c-2,1 -3,0 -3,-2 0,-2 3,-3 3,0zm-1 0c0,-2 -2,-2 -2,0l2 0zm2 -2l1 0 0 1c1,-1 2,-1 2,1l0 2 0 0 0 -2c0,-1 -1,-1 -2,-1l0 3 -1 0 0 -4zm5 2c-1,-1 0,-2 1,-2 0,1 -1,1 -1,2z"/>
  </g>
  <g>
   <path class="fil0" d="M419 107c0,-1 1,-1 2,-1l1 0 0 6 0 0c-1,0 -1,-1 -1,-1l0 -1c0,0 0,0 0,0 -1,0 -1,0 -1,0 1,-1 1,-1 1,-1l0 -2c-1,0 -1,0 -2,0 0,0 0,0 0,0zm8 1l-2 0 0 2 -1 0 0 -2 -1 0 0 0 1 0 0 -2 1 0 0 2 2 0 0 0zm4 0l-1 0 0 2 -1 0 0 -2 -2 0 0 0 2 0 0 -2 1 0 0 2 1 0 0 0zm2 -4c3,3 2,6 0,8l0 0c2,-2 2,-5 0,-7l0 -1zm7 8c-2,0 -2,-1 -2,-3 0,-1 -1,-1 -1,-1l0 0c0,0 1,0 1,-1 0,-2 0,-3 2,-3l0 1c-3,0 0,3 -2,3 2,0 -1,3 1,3l1 0 0 1zm1 -6l1 0 1 4 1 -3c0,1 0,1 0,1 0,0 0,0 0,0l-1 2 -1 0 -1 -4zm5 4c0,0 0,0 0,0l0 0zm26 0l-1 0 -2 -2 0 2 -1 0 0 -2c1,0 1,-1 1,-1l0 1 2 -2 1 0 -2 2 2 2zm4 2l-2 0 0 -8 2 0 0 1 -2 0 0 6 2 0 0 1zm1 -4c0,-1 1,-2 3,-2l1 0 0 6 -1 0 0 -2c-1,1 -2,1 -3,-1 0,0 0,0 0,-1zm1 0c0,2 1,2 2,1l0 -2c-1,-1 -2,0 -2,1zm6 4l-2 0 0 -1 2 0 0 -6 -2 0 0 -1 2 0 0 8zm3 -1c1,0 1,0 1,-1 -1,-1 1,-2 1,0 0,1 -1,2 -2,2l0 -1zm-472 9l0 0 -1 -1 -1 0c0,0 -1,-1 -1,-1l2 0 -1 -3 -1 3c0,0 0,0 0,-1l1 -2 1 0 1 5zm4 0c-1,0 -2,0 -2,-1l0 -3 -1 0 0 0 1 0 0 -1 1 0 0 1 1 0 0 0 -1 0 0 2c0,2 1,1 1,1l0 1zm5 0c-1,0 -3,0 -3,-1l0 -3 -1 0 0 0 1 0 0 -1 1 0 0 1 2 0 0 0 -2 0 0 2c0,2 1,1 2,1l0 1zm1 -4l1 0 0 1c1,-2 3,-2 3,0l-1 0c0,-1 -1,-1 -2,0l0 3 -1 0 0 -4zm6 0l-1 0 0 0 2 0 0 3 1 0 0 1 -3 0 0 -1 1 0 0 -3zm7 2c0,2 -2,2 -4,2l0 -6 1 0 0 3c1,-2 2,-1 3,0 0,0 0,0 0,1zm-1 0c0,-2 -1,-2 -2,-1l0 2c1,1 2,0 2,-1zm5 2l-1 0 0 -1c-1,1 -2,1 -2,-1l0 -2 0 0 0 2c0,2 1,2 2,1 0,0 0,0 0,0l0 -3 1 0 0 4zm4 0c-1,0 -2,0 -2,-1l0 -3 -1 0 0 0 1 0 0 -1 1 0 0 1 1 0 0 0 -1 0 0 2c0,2 1,1 1,1l0 1zm5 -2c0,0 0,0 0,0l-3 0c0,2 2,1 3,1l0 1c-2,0 -3,0 -3,-2 0,-3 3,-3 3,0zm-1 0c0,-2 -2,-2 -2,0l2 0zm5 4c-3,-3 -3,-6 0,-8l0 0c-2,2 -2,5 0,7l0 1zm5 -3l0 0 -1 0 -2 0 0 1 -1 0 2 -5 1 0 1 4 0 0zm-1 -1l-1 -3 -1 3 2 0zm3 -4c2,2 2,4 1,6 0,0 1,0 1,0 -1,1 0,0 0,0 0,0 -1,-1 0,-1 0,-1 -1,0 -1,0 1,-2 0,-3 -1,-5l0 0zm6 8l-1 0 0 -9 1 0 0 9zm4 0l0 0 0 -9 0 0 0 9zm7 -2l-1 0 0 -5 -1 3 -1 0 -1 -3 0 5 -1 0 1 -5 1 0 0 2 1 -2 1 0 1 5z"/>
  </g>
  <g>
   <path class="fil0" d="M102 120l-1 0 0 -3c0,-1 -2,0 -2,0 0,0 0,0 -1,-1l0 -2 1 0 0 2c1,-1 3,0 3,1l0 3zm42 -3c0,0 0,0 0,0l0 0zm-39 5c-2,-3 -2,-6 0,-8l1 0c-2,2 -2,5 0,7l-1 1zm6 -2l-1 0 0 -1 -2 0 0 1 -1 0 2 -5 1 0 1 5zm-1 -2l-1 -3 -1 3 2 0zm3 -4c2,2 2,5 0,8l-1 -1c2,-2 2,-5 0,-7l1 0zm4 0c2,0 2,1 2,2 0,1 0,1 1,1l0 1c-1,0 -1,0 -1,1 0,1 0,3 -2,3l0 -1c0,0 1,0 1,-1 0,-1 0,-2 1,-2 -2,-1 0,-3 -2,-3l0 0 0 -1zm8 6l-1 0 0 -5 -1 3 -1 0 -1 -3 0 5 0 0 0 -5 1 0 1 2 0 -2 1 0 1 5zm6 -5l-1 0 0 -1 2 0 0 5 1 0 0 1 -3 0 0 -1 1 0 0 -4zm7 3c0,0 0,0 0,0l-3 0c0,2 2,1 3,1l0 1c-2,0 -4,0 -4,-2 0,-3 4,-3 4,0zm-1 0c0,-2 -2,-2 -2,0l2 0zm2 -2l1 0 0 0c1,-1 2,-1 2,1l0 3 0 0 0 -3c0,-1 -1,-1 -2,0 0,0 0,0 0,0l0 3 -1 0 0 -4zm7 0c1,2 0,3 -2,2 0,1 1,1 2,1 2,0 2,3 -1,3 0,-1 0,-1 0,-1 0,0 1,0 1,0 1,-1 -2,-1 -2,-1 0,0 0,-1 0,-1 -1,0 -1,-1 0,-1 -1,-1 0,-3 2,-2l1 0 0 0 -1 0zm5 4c-1,0 -2,0 -2,-1l0 -3 -1 0 0 0 1 0 0 -1 0 0 0 1 2 0 0 0 -2 0 0 2c0,2 2,1 2,1l0 1zm5 0l-1 0 0 -3c0,-1 -1,-1 -1,0 -1,0 -1,0 -1,0l0 3 0 0 0 -6 0 0 0 2c1,-1 3,0 3,1l0 3zm1 -4l1 -1 2 3 -2 2 -1 -1 2 -1 -2 -2zm6 4c-2,-1 -2,-5 0,-5l0 0c-1,1 -1,2 -1,3l1 -1 0 1 -1 0c0,1 0,1 1,1l0 1zm19 1l0 0 0 0 0 0zm2 -5l1 0 0 0c1,-1 2,-1 2,1l0 3 0 0 0 -3c0,-1 -1,-1 -2,0 0,0 0,0 0,0l0 3 -1 0 0 -4zm8 2c0,0 0,0 0,0l-3 0c0,2 2,1 3,1l0 1c-2,0 -4,0 -4,-2 0,-3 4,-3 4,0zm-1 0c0,-2 -2,-2 -2,0l2 0zm6 -2l-1 4 -1 0 0 -2 -1 2 -1 0 0 -4 0 0 1 3 1 -2 0 0 1 2 0 -3 1 0zm6 4l-1 -1 1 1zm0 -2c-1,-1 -1,-2 0,-2l0 2z"/>
  </g>
  <path class="fil0" d="M243 116l0 0 0 0c1,-1 3,-1 3,1l0 3 -1 0 0 -3c0,-1 -1,-1 -1,0 0,0 0,0 -1,0l0 3 0 0c0,0 0,-1 0,-1l0 -3zm7 6c-3,-3 -3,-6 0,-8l0 0c-2,2 -2,5 0,7l0 1zm3 -8l0 2 -1 0 0 -2 1 0zm2 0l0 2 -1 0 0 -2 1 0zm2 7c0,0 1,-1 1,-1 -1,-1 1,-2 1,0 0,1 -1,1 -2,1l0 0zm10 -7l0 2 -1 0 0 -2 1 0zm1 0l0 2 -1 0 0 -2 1 0zm3 0c2,2 2,5 0,8l-1 -1c2,-2 2,-5 0,-7l1 0zm4 0c3,2 3,5 0,8l0 -1c2,-2 2,-5 0,-7l0 0zm5 0c2,2 2,5 0,8l-1 -1c2,-2 2,-5 0,-7l1 0zm4 0c2,0 2,1 2,2 0,1 0,1 1,1l0 1c-1,0 -1,0 -1,1 0,1 0,3 -2,3l0 -1c0,0 1,0 1,-1 0,-1 0,-2 1,-2 -2,-1 0,-3 -2,-3l0 0 0 -1zm4 0c2,0 2,1 2,2 0,1 0,1 1,1l0 1c0,0 -1,0 -1,0 0,0 0,0 -1,0 1,0 1,0 1,0 -2,-1 0,-3 -2,-3l0 0 0 -1zm8 1c-2,-1 -2,0 -2,1l2 0 0 1 -2 0 0 3 -1 0 0 -3 -1 0 0 -1 1 0c0,-2 1,-2 3,-2l0 1zm4 5l0 0 0 -1c-1,1 -3,1 -3,-1l0 -2 1 0 0 2c0,2 1,2 1,1 0,0 0,0 0,0l0 -3 1 0 0 4zm1 -4l1 0 0 0c1,-1 3,-1 3,1l0 3 -1 0 0 -3c0,-1 -1,-1 -1,0 -1,0 -1,0 -1,0l0 3 -1 0 0 -4zm8 4c-1,0 -3,0 -3,-2 0,-2 2,-3 3,-2l0 1c-3,-2 -3,4 0,2l0 1zm25 -5l0 0 0 0 0 1c0,-1 0,-1 0,-1zm1 1l1 0 0 0 -1 0c0,0 0,0 0,0zm5 6c-3,-3 -2,-6 0,-8l0 0c-2,2 -2,5 0,7l0 1zm5 -4c0,0 0,0 0,0l-2 0c0,2 1,1 2,1l0 1c-1,0 -3,0 -3,-2 0,-3 3,-3 3,0zm0 0c0,-2 -2,-2 -2,0l2 0zm2 -4c3,2 3,5 0,8l0 -1c2,-2 2,-5 0,-7l0 0zm7 8c-2,0 -2,-2 -2,-3 0,-1 0,-1 -1,-1l0 -1c1,0 1,0 1,-1 0,-1 0,-2 2,-2l0 1c-2,0 0,2 -2,3 2,0 0,3 2,3l0 0 0 1zm5 -4c0,0 0,0 0,0l-3 0c0,2 2,1 3,1l0 1c-2,0 -4,0 -4,-2 0,-3 4,-3 4,0zm-1 0c0,-2 -2,-2 -2,0l2 0zm10 0c0,1 -1,2 -3,2l0 2 0 0 0 -6 0 0 0 1c1,-2 3,-1 3,0 0,0 0,0 0,1zm-1 0c0,-2 -1,-2 -2,-1l0 2c1,1 2,0 2,-1zm2 -2l1 0 0 1c1,-2 3,-2 3,0l-1 0c0,-1 -1,-1 -2,0l0 3 -1 0 0 -4zm8 2c0,3 -5,2 -3,-1 0,-2 3,-2 3,1zm-1 0c0,-2 -1,-2 -2,-1 0,3 2,3 2,1z"/>
  <path class="fil0" d="M381 120c-1,0 -2,0 -2,-1l0 -3 -1 0 0 0 1 0 0 -1 1 0 0 1 1 0 0 0 -1 0 0 2c0,2 1,1 1,1l0 1zm5 -2c0,1 0,2 -2,2 -1,0 -2,-2 -1,-3 0,-2 3,-2 3,1zm-1 0c0,-2 -1,-2 -2,-1 0,3 2,3 2,1zm5 2c-1,0 -2,0 -2,-1l0 -3 -1 0 0 0 1 0 0 -1 1 0 0 1 1 0 0 0 -1 0 0 2c0,2 1,1 1,1l0 1zm2 1c0,1 0,1 -1,1l0 -1c1,0 1,0 1,0l0 0zm1 -2l-2 -3 1 0 1 2c0,0 0,0 0,1zm38 1l-3 0 0 -5 3 0 0 0 -2 0 0 2 2 0 0 0 -2 0 0 2 2 0 0 1zm1 -4l1 0 0 1c1,-2 3,-2 3,0l-1 0c0,-1 -1,-1 -1,0 -1,0 -1,0 -1,0l0 3 -1 0 0 -4zm5 0l1 0 0 1c1,-2 2,-2 2,0l0 0c0,-1 -1,-1 -2,0 0,0 0,0 0,0l0 3 -1 0 0 -4zm8 2c0,1 -1,2 -2,2 -2,0 -2,-2 -2,-3 1,-2 4,-2 4,1zm-1 0c0,-2 -2,-2 -2,-1 -1,3 2,3 2,1zm2 -2l1 0 0 1c1,-2 2,-2 2,0l0 0c0,-1 -1,-1 -2,0 0,0 0,0 0,0l0 3 -1 0 0 -4zm5 5c0,0 1,-1 1,-1 -1,-1 1,-2 1,0 0,1 -1,1 -2,1l0 0zm7 -3c0,0 0,0 0,0l-3 0c0,2 2,1 3,1l0 1c-2,0 -3,0 -3,-2 0,-3 3,-3 3,0zm0 0c0,-2 -2,-2 -3,0l3 0zm9 0c0,1 -1,2 -2,2l0 2 -1 0 0 -6 1 0 0 1c0,-2 2,-1 2,0 0,0 0,0 0,1zm0 0c0,-2 -1,-2 -2,-1l0 2c1,1 2,0 2,-1zm2 -2l0 0 0 1c1,-2 3,-2 3,0l-1 0c0,-1 -1,-1 -1,0 0,0 -1,0 -1,0l0 3 0 0 0 -4zm7 2c0,1 0,2 -1,2 -2,0 -3,-2 -2,-3 0,-2 3,-2 3,1zm0 0c0,-2 -2,-2 -3,-1 0,3 3,3 3,1zm5 2c-1,0 -3,0 -3,-1l0 -3 -1 0 0 0 1 0 0 -1 1 0 0 1 2 0 0 0 -2 0 0 2c0,2 1,1 2,1l0 1zm2 0c-1,-1 -2,-2 -1,-3 0,-2 3,-2 3,0 0,0 0,0 0,0 -1,-1 -2,-1 -3,0 0,1 1,2 1,2 0,0 0,1 0,1zm3 -4l0 0 0 0 1 0 0 0c0,0 -1,0 -1,0zm1 0l0 -1 1 0 0 0c0,0 -1,0 -1,1z"/>
  <path class="fil0" d="M23 126c0,-1 1,-1 2,-1l0 1c-1,0 -1,0 -1,0 -1,0 -1,0 -1,0zm4 2c0,-1 0,-2 0,-2l-1 0 0 -1 1 0 0 -1 1 0 0 1 1 0 0 1 -1 0c0,0 0,2 0,2 -1,0 -1,0 -1,0zm4 -3l0 0 1 1c1,-1 2,-1 2,1l-1 0c0,-2 -1,-1 -1,0l0 2c-1,0 -1,0 -1,0l0 -4zm7 4l0 0 0 0c-1,1 -3,1 -3,-1l0 -3 1 0 0 3c0,1 1,1 1,1 0,-1 1,-1 1,-1l0 -3 0 0 0 4zm5 0c-2,1 -3,0 -3,-1 0,-2 1,-3 3,-2l0 0c-3,-1 -3,4 0,3l0 0zm2 -1l0 -2 -1 0 0 -1 1 0 0 -1 1 0 0 1 1 0 0 1 -1 0c0,1 0,3 -1,3 0,1 0,-1 0,-1zm7 -1c0,0 0,0 0,0 0,0 0,0 0,0 0,-2 -2,-2 -3,0 0,0 1,1 1,1 -1,0 -1,0 -1,0 -1,0 -1,-1 0,-1 0,-2 3,-3 3,0zm14 0c0,0 0,1 0,1l-2 0c0,0 0,-1 0,-1 0,0 0,0 0,0 0,-1 1,1 0,1 0,-1 -1,-3 0,-3 1,0 2,1 2,2zm-1 0c0,-1 -1,-1 -1,-1 -1,0 0,0 0,0 0,0 0,0 0,0 0,0 0,1 0,1 0,0 0,0 0,0 0,0 1,0 1,0zm2 -3c2,0 2,0 2,2 0,1 0,1 1,1l0 0c-1,0 -1,0 -1,1 0,0 -1,0 -1,0 0,0 1,-1 1,-1 -2,0 0,-3 -2,-3l0 0 0 0zm8 0c-2,0 -2,1 -2,2l2 0 0 1 -2 0 0 1c0,0 0,0 -1,0l0 -1 -1 0 0 -1 1 0c0,-2 1,-3 3,-2l0 0zm3 4l0 -3 1 0 0 3 -1 0zm-2 0l0 -3 1 0 0 3c-1,0 -1,0 -1,0zm4 -3l1 0 0 1 0 0c0,1 0,2 0,2 0,0 0,0 -1,0l0 -3zm32 0l1 0 0 1c1,-1 2,-1 2,1l0 2c0,0 0,0 -1,0l0 -2c0,-1 0,-1 -1,-1l0 1 0 1c-1,0 -1,0 -1,0l0 -3zm5 4c-1,-2 0,-4 2,-5l0 0c-1,2 -2,4 -1,5 0,0 0,0 -1,0zm7 -2c0,0 0,1 0,1l-2 0c0,1 1,1 2,1l0 0c-2,1 -3,1 -3,-2 0,-2 3,-2 3,0zm0 0c0,-1 -2,-2 -2,0l2 0zm2 -3c2,1 3,4 2,5 -1,0 -1,0 -1,1 1,-2 1,-4 -1,-6l0 0zm5 4c0,0 0,-1 -1,-1l0 0c1,0 1,0 1,-1 0,-2 0,-2 2,-2l0 0c-2,0 0,3 -2,3 1,0 1,1 1,1l-1 0zm4 -2l0 0 -1 0 0 -1 1 0 0 -1 1 0 0 1 1 0c-1,1 -1,1 -2,1zm4 -1l0 -1 1 0 0 0c-1,0 -1,1 -1,1z"/>
  <g>
   <path class="fil0" d="M151 128c-1,0 -2,-1 -2,-2 1,-1 2,-1 3,-1l0 1c0,0 -2,0 -2,0 0,1 2,1 2,2 0,0 -1,0 -1,0zm7 -3l1 0 0 1c0,0 0,-1 1,-1 2,0 1,2 1,3 0,0 0,0 0,0l0 -1c0,-1 -1,-1 -2,-1 0,1 0,1 0,1l0 1c-1,0 -1,0 -1,0l0 -3zm5 3c0,-1 0,-1 1,-1l-1 1zm1 -2c0,0 -1,0 -1,0l0 0c0,-1 1,-1 1,-1l0 1zm19 -2l0 2 0 0c0,-1 0,-2 0,-2l0 0zm3 1l-1 0 0 -1 3 0 0 1 -1 0 0 2c0,0 -1,0 -1,0l0 -2zm6 2c0,0 0,-2 0,-1 -1,1 -1,1 -1,1l0 0c0,-1 0,-2 -1,0l0 0c0,0 -1,0 -1,0l0 -2 1 0 0 1c0,0 0,-1 1,-1 0,0 0,1 0,1 0,0 1,-1 1,-1 1,0 1,1 1,2l-1 0zm3 0c0,0 1,0 1,0 0,0 0,-1 0,-1 0,0 -1,0 -2,0l0 0c1,-1 3,-1 3,1l0 0 -2 0zm6 -1c1,0 1,1 0,1 0,0 0,0 0,0l-3 0c0,-1 1,-2 2,-2l2 0 0 1 -1 0zm52 1l0 0 0 -3 1 0 2 4c-1,0 -1,0 -1,-1l-1 -2 -1 2c0,0 0,0 0,0zm7 2c-1,1 -2,1 -2,-1l0 -2 -2 0 0 -1 2 0 0 -1 0 0 0 1 2 0 0 1 -2 0 0 2c0,1 1,1 2,1l0 0zm4 0c-1,1 -2,1 -2,-1l0 -2 -1 0 0 -1 1 0 0 -1 1 0 0 1 1 0 0 1 -1 0 0 2c0,1 1,1 1,1l0 0zm2 -4l1 0 0 1c1,-1 2,-1 2,1l-1 0c1,-2 -1,-1 -1,0l0 2 -1 0 0 -4zm6 1l-2 0 0 -1 2 0 0 4c0,0 0,0 0,0l0 -3zm-1 3l-1 0 0 0 1 0c0,0 0,0 0,0zm6 -1c1,-2 0,-3 -2,-1l0 2c0,0 0,0 0,0l0 -5 0 0 0 2c1,-1 3,-1 3,1 0,0 0,0 -1,1zm2 -1l0 -2 1 0 0 2c0,0 -1,0 -1,0z"/>
  </g>
  <g>
   <path class="fil0" d="M294 127c0,0 0,1 0,1l-3 0c0,1 2,1 3,1l0 0c-2,1 -3,1 -3,-2 0,-2 3,-2 3,0zm-1 0c0,-1 -2,-2 -2,0l2 0zm5 2l-3 0 0 -5 3 0 0 1 -2 0 0 1 2 0 0 1 -2 0 0 2 2 0 0 0zm2 -4l0 0 0 1c1,-1 3,-1 3,1l-1 0c0,-2 -1,-1 -2,0l0 2 0 0 0 -4zm4 0l1 0 0 1c1,-1 2,-1 2,1l0 0c0,-2 -2,-1 -2,0l0 2 -1 0 0 -4zm8 2c0,4 -5,3 -4,0 1,-2 4,-2 4,0zm-1 0c0,-1 -2,-1 -2,0 -1,2 2,3 2,0zm37 -1c1,-1 2,-1 2,-1l0 1c0,0 -1,0 -1,0l-1 0zm5 2c0,-1 0,-1 0,-2l-1 0 0 -1 1 0 0 -1 0 0 0 1 2 0 0 1 -2 0 0 2c0,0 0,0 0,0zm6 1l0 0 0 0 -1 0c1,0 1,-1 1,-1l0 0c-1,0 -2,0 -2,0 0,0 0,0 -1,0 1,-1 2,-1 3,-1 0,0 0,-1 0,-1 -1,0 -2,0 -2,0l0 0c1,-1 3,-1 3,1l0 2 -1 0 0 0zm5 0c-2,1 -3,0 -3,-1 0,-2 1,-3 3,-2l0 0c-3,-1 -3,4 0,3l0 0zm5 0l-1 0 -2 -2 0 2 -1 0 0 -5 1 0 0 3 2 -2 1 0 -2 2 2 2zm4 -2l-4 0 4 0zm0 1l-4 0 0 0 4 0 0 0zm2 2c-1,-2 -1,-5 1,-6l1 0c-2,1 -2,3 -2,5 0,0 0,0 0,1zm3 -5l1 0 0 1c0,-1 2,-1 2,0 0,0 0,0 0,0 -1,-1 -2,0 -2,1 0,0 -1,0 -1,0l0 -2z"/>
  </g>
  <path class="fil0" d="M293 141c-1,0 -1,-1 -1,-3 0,-1 -1,-1 -1,-1l0 0c1,0 1,-1 1,-1 0,-2 0,-3 1,-3l0 1c0,0 -1,0 -1,1 0,1 0,2 0,2 1,0 0,3 1,3l0 0 0 1zm4 -2c-1,0 -2,0 -2,-1l0 -2 -1 0 0 -1 1 0 0 -1 0 0 0 1 2 0 0 1 -2 0 0 2c0,1 1,1 2,0l0 1zm3 0l0 0 0 -2c0,-2 -1,-2 -1,-1 -1,0 -1,0 -1,0l0 3 0 0 0 -6 0 0 0 3c1,-1 1,-1 1,-1 1,0 1,1 1,1l0 3z"/>
  <path class="fil0" d="M303 136l-1 0 0 -1 2 0 0 4 1 0 0 0 -3 0 0 0 1 0 0 -3zm6 2c0,1 -2,1 -3,1l0 -1c1,1 2,1 2,0 0,-1 -2,0 -2,-2 0,-1 2,-1 3,-1l0 1c-1,0 -2,-1 -2,0 0,1 2,1 2,2z"/>
  <path class="fil0" d="M293 149c-1,0 -1,0 -1,0 0,0 0,-1 0,-1 0,0 0,0 1,0l0 1zm-1 -4l1 0 0 0 -1 0c0,0 0,0 0,0zm3 0l-1 0 0 0 1 0 0 3 2 0 0 1 -3 0 0 -1 1 0 0 -3zm5 4c-1,0 -2,0 -2,-2l0 -2 -1 0 0 0 1 0 0 -1 1 -1 0 2 1 0 0 0 -1 0 0 2c0,1 1,1 1,1l0 1zm3 -5l-1 0 0 -1 1 0 0 5 1 0 0 1 -3 0 0 -1 2 0 0 -4zm5 2c0,1 0,1 0,1l-2 0c0,1 1,1 2,1l0 1c-1,0 -3,0 -3,-2 0,-3 3,-3 3,-1zm0 0c0,-1 -2,-1 -2,0l2 0z"/>
  <path class="fil0" d="M291 155c1,-1 2,-1 2,1l-1 0c0,-2 -1,-1 -1,-1 0,0 0,0 0,0zm3 -1l1 0 0 1c1,-1 2,-1 2,1l-1 0c0,-1 0,-1 -1,-1 0,0 0,1 0,1l0 2 -1 0 0 -4zm7 2c0,1 0,2 -2,2 -1,0 -2,-1 -1,-3 0,-1 3,-1 3,1zm-1 0c0,-2 -1,-2 -2,0 0,2 2,3 2,0zm2 -2l1 0 0 1c1,-1 2,-1 2,1l0 0c0,-1 -1,-1 -2,-1 0,0 0,1 0,1l0 2 -1 0 0 -4zm5 -2c2,3 2,6 0,8l0 0c1,-2 2,-5 0,-7l0 -1z"/>
  <path class="fil0" d="M32 45l0 0 0 -1c0,0 0,0 0,0l0 1zm5 0l-1 0 0 -2c0,0 1,0 1,0l0 2zm5 -2c0,0 -1,0 -1,0 0,0 0,0 1,0 0,0 0,0 0,0zm4 2c0,-1 0,-1 -1,-1 1,0 1,0 1,0 0,0 1,0 1,0l-1 1zm20 -6l1 0 0 1c0,-1 1,-1 1,-1 1,0 2,1 2,1l0 3 -1 0 0 -3c0,-1 -1,-1 -2,0 0,0 0,0 0,0l0 3 -1 0 0 -4zm7 6c-2,-3 -2,-6 0,-8l1 1c-2,2 -2,4 0,6l-1 1zm6 -7c-1,0 -2,0 -2,1l0 1 2 0 0 0 -2 0 0 3 -1 0 0 -3 -1 0 0 0 1 0c0,-2 0,-3 2,-3 0,0 1,0 1,0l0 1zm2 -1c0,0 0,1 0,1 0,0 0,0 0,1 0,-1 0,-1 -1,-1l1 -1zm0 7c0,0 0,1 0,1l-1 -1c1,0 1,0 1,-1 0,0 0,1 0,1z"/>
  <path class="fil0" d="M61 35c0,0 0,0 0,-1 0,0 0,0 0,0 0,0 0,0 1,0l-1 1zm0 -8l1 1c-1,1 -1,0 -1,-1zm2 2l1 0 0 1c0,-1 1,-1 1,-1 1,0 1,1 1,2l0 2 0 0 0 -2c0,-1 -1,-2 -2,-1 0,0 0,0 0,1l0 2 -1 0 0 -4zm8 2c0,0 0,0 0,0l-3 0c0,2 2,2 3,2l0 0c-2,1 -4,0 -4,-2 0,-2 4,-3 4,0zm-1 0c0,-2 -2,-2 -2,0l2 0zm6 -2l-1 4 -1 0 0 -2 -1 2 -1 0 0 -4 0 0 1 4 0 -3 1 0 1 2 0 -3 1 0zm5 0l0 0 0 1c1,0 1,0 1,-1 0,1 0,1 0,2l0 2 -1 0 0 -4z"/>
  <path class="fil0" d="M62 20l-1 0 0 -1 2 0 0 4 1 0 0 0 -3 0 0 0 1 0 0 -3zm7 1c0,2 -2,3 -4,2l0 -5 1 0 0 2c1,-1 2,-1 3,0 0,1 0,1 0,1zm-1 0c0,-2 -1,-2 -2,0l0 2c1,0 2,0 2,-2zm5 2l-1 0 0 0c0,0 0,0 -1,0 -1,0 -1,0 -1,-1l0 -3 0 0 0 3c0,1 1,1 2,0 0,0 0,0 0,0l0 -3 1 0 0 4zm4 0c-1,1 -2,0 -2,-1l0 -2 -1 0 0 -1 1 0 0 -1 1 0 0 1 1 0 0 1 -1 0 0 2c0,1 1,1 1,1l0 0zm5 -1l-3 0c0,1 2,1 3,1l0 0c-2,1 -4,0 -4,-2 0,-2 3,-2 4,-1l0 2zm-1 -1c0,-2 -2,-2 -2,0l2 0z"/>
  <path class="fil0" d="M434 124l0 -1 0 1 -1 -1 1 -1 1 0 0 2c0,0 -1,0 -1,0zm-3 -2l0 0 1 0 0 1 0 0c0,0 -1,0 -1,-1zm11 0l-1 0 0 0 1 0 0 5 2 0 0 0 -4 0 0 0 2 0 0 -5zm6 3c0,0 0,0 0,1l-3 0c0,1 2,1 3,1l0 0c-2,1 -3,0 -3,-2 0,-2 3,-3 3,0zm0 0c0,-2 -2,-2 -3,0l3 0zm1 -2l1 0 0 1c0,0 1,-1 1,-1 1,0 2,1 2,2l0 2 -1 0 0 -2c0,-1 -1,-1 -2,-1 0,0 0,0 0,1l0 2 -1 0 0 -4zm8 1c0,0 0,1 0,2 -1,0 -2,0 -2,0 -1,1 0,1 1,1 2,0 2,2 -1,2 0,0 -1,0 -1,-1 0,0 0,-1 0,-1 -1,0 0,-1 0,-2 -1,-1 0,-2 2,-2l1 0 0 1 0 0zm-3 4c0,1 2,1 3,0 0,-1 -2,-1 -2,-1 0,0 -1,1 -1,1zm8 -1c-1,1 -3,0 -3,-1l0 -2 -1 0 0 -1 1 0 0 -1 1 0 0 1 2 0 0 1 -2 0 0 2c0,1 1,1 2,1l0 0zm4 0l-1 0 0 -2c0,-1 0,-1 -1,-1 0,0 0,0 0,1l0 2 -1 0 0 -5 1 0 0 2c1,-1 2,-1 2,1l0 2zm2 -4l0 0 3 2 -3 2 0 0 2 -2 -2 -2zm4 4c-1,-2 -1,-5 1,-5l0 1c-1,0 -1,1 -1,2l1 0 0 0 -1 1c1,0 1,0 1,0 0,0 -1,1 -1,1z"/>
  <path class="fil0" d="M106 52l0 0 0 -1c-1,1 -1,1 -2,1 -1,0 -1,-1 -1,-1 0,-1 0,-1 1,-1l0 0c0,2 1,2 1,1 0,0 0,0 1,0l0 -3c0,0 0,0 0,0l0 0 0 4zm5 0c-1,0 -3,0 -3,-1l0 -3 -1 0 0 0 1 0 0 -1 1 0 0 1 2 0 0 0 -2 0 0 3c0,1 1,0 2,0l0 1zm4 2l-2 0 0 -8 2 0c0,0 0,0 0,1l-2 0 0 6 2 0 0 1z"/>
  <path class="fil1 str0" d="M456 59c14,0 19,14 19,27 0,16 -8,28 -19,28 -12,0 -19,-12 -19,-28 0,-13 6,-27 19,-27z"/>
  <path class="fil1 str0" d="M457 42c-24,0 -42,17 -42,45 0,27 18,43 41,43 20,0 41,-14 41,-45 0,-25 -16,-43 -40,-43z"/>
  <path class="fil1 str0" d="M366 59c14,0 19,14 19,27 0,16 -8,28 -19,28 -12,0 -19,-12 -19,-28 0,-13 5,-27 19,-27z"/>
  <path class="fil1 str0" d="M367 42c-25,0 -42,17 -42,45 0,27 18,43 40,43 21,0 42,-14 42,-45 0,-25 -16,-43 -40,-43z"/>
  <path class="fil1 str0" d="M290 93c0,2 0,4 0,6 -3,8 -9,14 -17,14 -13,0 -20,-12 -20,-27 0,-15 8,-26 20,-26 9,0 15,6 17,14 0,2 0,3 0,5l0 14z"/>
  <path class="fil1 str0" d="M291 162l20 0 0 -94c0,-9 1,-17 1,-24l-20 0 0 11 0 0c-5,-8 -13,-13 -24,-13 -17,0 -36,14 -36,45 0,26 16,43 34,43 11,0 20,-6 25,-14l0 0 0 46z"/>
  <path class="fil1 str0" d="M182 128l20 0 0 -43c0,-3 1,-5 1,-7 2,-9 8,-16 18,-16 3,0 4,1 6,1l0 -20c-2,0 -3,-1 -5,-1 -8,0 -18,6 -22,18l0 0 -1 -16 -18 0c1,8 1,16 1,27l0 57z"/>
  <path class="fil1 str0" d="M143 98c0,2 0,3 -1,5 -2,6 -7,11 -15,11 -7,0 -11,-4 -11,-12 0,-12 13,-15 27,-15l0 11z"/>
  <path class="fil1 str0" d="M164 128c-1,-5 -1,-12 -1,-20l0 -30c0,-19 -8,-36 -33,-36 -13,0 -23,4 -29,8l4 14c5,-4 13,-7 21,-7 14,0 17,10 17,15l0 1c-30,0 -48,11 -48,32 0,13 9,25 25,25 11,0 19,-5 24,-11l0 0 2 9 18 0z"/>
  <path class="fil1 str0" d="M60 92c0,2 0,4 -1,5 -1,9 -8,14 -16,14 -13,0 -20,-10 -20,-24 0,-15 7,-26 20,-26 9,0 15,6 17,14 0,2 0,3 0,5l0 12z"/>
  <path class="fil1 str0" d="M61 7l0 47 0 0c-4,-6 -12,-11 -23,-11 -19,0 -36,17 -36,45 0,25 15,42 35,42 11,0 21,-6 26,-15l0 0 1 13 19 0c-1,-5 -1,-15 -1,-23l0 -98 -21 0z"/>
 </g>
</svg>
