<?xml version="1.0" encoding="UTF-8"?>
<!DOCTYPE svg PUBLIC "-//W3C//DTD SVG 1.1//EN" "http://www.w3.org/Graphics/SVG/1.1/DTD/svg11.dtd">
<!-- Creator: CorelDRAW X7 -->
<svg xmlns="http://www.w3.org/2000/svg" xml:space="preserve" width="252px" height="106px" version="1.1" style="shape-rendering:geometricPrecision; text-rendering:geometricPrecision; image-rendering:optimizeQuality; fill-rule:evenodd; clip-rule:evenodd"
viewBox="0 0 252 106"
 xmlns:xlink="http://www.w3.org/1999/xlink">
 <defs>
  <style type="text/css">
   <![CDATA[
    .fil0 {fill:#FEFEFE}
   ]]>
  </style>
 </defs>
 <g id="Warstwa_x0020_1">
  <metadata id="CorelCorpID_0Corel-Layer"/>
  <g id="_976838544">
   <path class="fil0" d="M54 1c0,0 0,0 0,1 0,0 0,1 0,1 -1,2 -1,4 -2,6 -1,2 -1,5 -2,7 -1,2 -1,5 -2,7 -1,3 -2,5 -3,8 -1,3 -2,6 -3,10 -1,3 -2,6 -3,9 -1,3 -1,5 -2,7 -1,2 -1,4 -2,5 0,1 0,2 0,2 0,1 0,2 0,2 0,1 1,1 1,1 0,1 1,1 1,1 1,0 1,0 2,0 0,0 1,1 1,1 0,0 1,0 1,0 0,0 0,0 0,0 0,1 0,1 -1,1 0,0 -1,0 -1,0 -1,0 -2,0 -4,0 -1,0 -3,0 -5,0 -1,0 -1,0 -2,0 -1,0 -2,0 -3,0 -1,0 -3,0 -4,1 -1,0 -2,0 -4,0 -2,0 -4,-1 -6,-1 -1,-1 -3,-1 -4,-3 -1,-1 -2,-2 -2,-4 0,-2 0,-4 1,-7 0,-2 1,-4 3,-6 1,-1 3,-3 5,-4 1,-1 3,-2 5,-3 2,-1 5,-1 7,-1 2,0 4,0 5,1 1,0 3,0 3,1 1,-3 2,-5 2,-7 1,-3 2,-5 2,-7 1,-3 1,-5 2,-7 1,-2 1,-3 1,-5 1,-1 1,-3 1,-4 1,-1 1,-1 1,-1 0,-1 0,-1 0,-1 0,-1 0,-1 0,-1 0,-1 0,-1 0,-1 0,0 0,0 -1,0 0,0 0,0 -1,0 0,0 -1,0 -1,1 -1,0 -2,0 -2,0 -1,0 -1,0 -1,0 -1,0 -1,0 -1,0 0,0 0,0 0,0 0,-1 0,-1 1,-1 0,0 0,-1 1,-1 0,0 0,0 1,0 0,0 1,0 2,-1 0,0 1,0 2,-1 1,0 2,-1 3,-1 2,-1 3,-2 4,-2 1,-1 1,-1 2,-1 1,-1 1,-1 1,-1 1,-1 1,-1 1,-1zm-24 60c0,-2 0,-3 1,-4 0,-1 0,-2 1,-4 0,-1 0,-2 1,-3 0,-2 0,-3 1,-4 -1,0 -2,-1 -3,-1 -1,0 -2,0 -3,0 -2,0 -3,0 -5,0 -1,1 -2,2 -3,3 -2,1 -3,2 -3,3 -1,2 -2,3 -2,5 -1,2 -1,4 -1,5 0,2 0,3 0,4 1,1 2,2 3,3 1,0 2,0 4,0 1,0 2,0 3,0 1,-1 2,-1 3,-2 0,-1 1,-1 1,-2 1,-1 1,-2 2,-3zm30 -13c-1,0 -2,0 -2,0 -1,-1 -2,-1 -2,-2 0,-1 -1,-1 -1,-2 0,-1 0,-3 1,-4 0,-1 1,-3 2,-4 1,-2 2,-3 3,-4 1,-1 3,-2 4,-3 2,0 3,-1 5,-1 2,0 3,0 4,1 2,0 2,1 3,2 1,0 1,1 2,2 0,1 0,2 1,3 0,1 0,2 0,3 0,1 0,2 0,3 0,0 0,1 -1,2 0,1 0,2 0,4 0,1 0,2 0,4 -1,1 -1,3 -1,4 0,1 0,3 -1,4 0,2 0,3 0,4 0,1 0,2 -1,3 0,1 0,2 0,2 0,1 0,1 0,2 0,1 0,2 0,2 0,1 0,1 1,2 0,0 0,0 1,0 0,0 1,0 1,0 0,0 1,0 1,-1 0,0 0,0 0,-1 1,0 1,0 1,-1 0,0 0,-1 0,-1 0,-1 1,-1 1,-1 0,-1 0,-1 0,-1 0,0 0,-1 1,-1 0,0 0,1 0,1 0,0 0,1 0,1 0,0 0,1 0,1 0,0 0,1 0,1 0,1 -1,2 -1,3 -1,1 -1,2 -2,3 -1,1 -2,2 -3,2 -1,1 -2,1 -4,1 -1,0 -2,0 -2,0 -1,-1 -2,-1 -2,-1 -1,-1 -1,-2 -1,-2 0,-1 -1,-1 -1,-2 0,-1 0,-2 0,-4 0,-1 0,-3 1,-4 -1,0 -2,1 -3,2 -1,1 -2,2 -3,2 -2,1 -3,2 -5,2 -1,1 -3,1 -5,1 -1,0 -3,0 -4,0 -1,-1 -2,-2 -3,-3 0,-1 -1,-2 -1,-3 0,-1 0,-2 1,-4 0,-1 1,-3 2,-4 1,-2 2,-3 4,-4 2,-2 3,-3 6,-3 2,-1 5,-1 7,-1 1,0 2,0 2,0 1,0 2,0 2,0 1,0 1,0 1,0 1,0 1,0 1,0 1,-2 1,-4 1,-6 1,-1 1,-2 1,-3 0,-1 0,-2 0,-3 1,-1 1,-2 1,-2 0,-1 0,-2 0,-3 0,-2 0,-3 -1,-4 -1,-2 -2,-2 -4,-2 0,0 -1,0 -2,0 -1,1 -2,1 -2,2 -1,0 -2,1 -2,1 0,1 -1,2 -1,2 0,1 0,2 0,2 0,1 1,1 1,1 0,1 1,1 1,1 1,1 1,1 2,2 0,0 0,0 0,1 0,1 0,1 0,2 0,1 -1,2 -2,3 -1,1 -2,1 -3,1zm10 7c0,0 -1,0 -1,0 -1,0 -1,0 -2,0 0,0 -1,0 -1,0 -1,-1 -2,-1 -2,-1 -1,0 -3,1 -4,1 -1,0 -2,1 -3,2 -1,0 -2,1 -3,2 -1,1 -1,2 -2,4 0,1 0,2 0,3 0,1 1,1 1,2 1,0 1,1 2,1 1,0 1,0 2,0 1,0 3,0 4,0 1,-1 2,-1 3,-2 1,0 2,-1 3,-1 0,-1 1,-1 1,-1 0,-2 1,-3 1,-4 0,-1 0,-2 0,-2 0,-1 0,-1 0,-2 0,0 1,-1 1,-1 0,0 0,0 0,-1zm40 -27c0,0 0,1 -1,1 0,1 0,1 0,2 0,1 0,1 -1,2 0,1 0,2 0,2 0,1 0,2 0,2 0,0 0,1 0,1 0,0 0,-1 1,-1 0,-1 1,-2 1,-3 1,-1 2,-2 3,-3 1,-2 2,-3 3,-4 1,-1 2,-2 4,-2 1,-1 3,-1 4,-1 2,0 3,0 4,0 1,1 2,2 2,2 0,1 0,2 0,3 0,1 0,2 0,3 0,1 -1,2 -1,3 -1,1 -2,2 -2,2 -1,1 -2,1 -3,2 -1,0 -1,0 -2,0 -1,0 -3,0 -3,-1 -1,-1 -1,-1 -1,-3 1,0 1,-1 1,-1 0,-1 1,-1 1,-2 1,0 1,0 2,-1 0,0 1,0 1,0 1,0 2,-1 3,-1 0,-1 0,-1 1,-2 0,0 0,0 0,-1 0,0 0,0 -1,-1 0,0 0,0 -1,0 0,-1 -1,-1 -1,-1 -2,0 -3,1 -4,1 -1,1 -2,2 -4,3 -1,1 -2,2 -3,4 0,1 -1,2 -2,4 -1,1 -2,3 -2,4 -1,2 -1,3 -2,5 0,1 0,2 -1,4 0,1 0,3 -1,4 0,1 0,3 0,4 -1,2 -1,3 -1,4 0,1 0,2 0,3 0,1 0,1 0,2 0,1 0,1 0,2 1,0 1,0 2,0 1,0 1,0 1,0 1,0 1,0 1,0 1,0 1,1 1,1 0,0 0,1 -1,1 0,0 0,0 -1,0 -1,0 -2,0 -3,0 -1,0 -2,0 -3,0 -1,0 -2,0 -3,0 -1,1 -3,1 -4,1 -1,0 -2,1 -3,1 -1,0 -2,0 -3,0 0,1 -1,1 -1,1 -1,0 -1,-1 -1,-1 0,0 0,0 0,0 0,-1 0,-1 0,-1 1,0 1,0 2,-1 0,0 1,0 1,0 1,0 2,0 2,-1 1,0 2,0 2,-1 1,-1 1,-1 2,-3 0,0 0,-1 0,-1 0,-1 1,-2 1,-3 0,-2 0,-3 1,-4 0,-2 0,-3 1,-5 0,-1 0,-2 1,-4 0,-1 0,-3 0,-4 1,-1 1,-2 1,-3 0,-1 0,-2 1,-3 0,-1 0,-1 0,-2 0,0 -1,0 -1,-1 0,0 0,0 -1,0 0,0 0,0 -1,0l-1 0c0,0 0,0 -1,0 0,0 0,0 0,0 0,0 0,0 0,0 0,-1 0,-1 0,-1 0,0 0,0 0,0 0,-1 1,-1 1,-1 1,0 2,0 3,0 1,-1 3,-1 4,-2 0,0 1,-1 2,-2 1,0 2,-1 2,-2 1,-1 1,-1 1,-1 1,0 1,0 1,1 0,0 0,0 0,0zm29 10c2,0 3,0 4,0 1,0 2,1 2,1 1,0 2,1 2,1 0,0 1,1 1,1 0,-1 0,-1 0,-1 0,-1 1,-1 1,-1 0,-1 0,-1 0,-2 0,0 1,0 1,0 0,0 0,0 0,0 1,-1 1,-1 1,-1 1,0 1,0 2,1 0,0 1,0 2,0 1,0 2,0 3,-1 2,0 2,0 3,0 1,0 1,0 1,1 0,0 -1,0 -2,0 0,0 -1,1 -2,1 -1,0 -1,0 -2,1 0,0 -1,0 -1,1 0,0 -1,1 -1,1 0,1 0,2 -1,2 0,1 0,1 0,2 0,1 -1,2 -1,3 0,1 -1,3 -1,5 -1,1 -1,3 -2,5 -1,2 -1,4 -2,7 -1,2 -1,4 -2,6 -1,2 -1,5 -2,7 -1,2 -1,4 -2,6 0,1 -1,3 -1,4 0,2 -1,3 -1,4 0,1 -1,2 -1,3 0,1 0,1 0,1 -1,1 -1,2 -1,3 0,1 1,1 1,2 1,1 1,1 2,1 1,1 2,1 2,1 0,0 0,0 1,0 0,1 0,1 0,1 0,0 -1,0 -1,1 0,0 0,0 0,0 -1,0 -2,0 -3,-1 -1,0 -2,0 -3,-1 -1,0 -2,-1 -3,-1 -1,0 -2,-1 -3,-1 0,0 -1,0 -2,0 0,0 -1,0 -2,-1 -1,0 -2,0 -2,0 -1,0 -2,0 -2,0 -1,0 -2,0 -2,0 0,0 0,0 0,-1 0,0 0,-1 2,-1 0,0 0,0 1,0 0,0 1,1 1,1 0,0 1,0 1,0 1,0 1,0 1,0 1,0 2,-1 2,-1 1,0 1,0 1,-1 1,0 1,-1 1,-1 0,-1 1,-1 1,-2 0,-1 0,-2 1,-3 0,-1 1,-3 1,-5 1,-2 2,-4 2,-6 1,-2 2,-4 2,-6 1,-2 1,-4 2,-6 1,-1 1,-3 2,-4 0,-1 0,-2 0,-3 0,-1 1,-1 1,-1 -1,0 -2,1 -3,1 -1,0 -2,1 -3,1 0,0 -1,1 -2,1 -1,0 -2,0 -3,0 -1,0 -2,0 -3,0 0,0 -1,-1 -2,-1 -1,0 -1,-1 -2,-1 -1,-1 -1,-2 -2,-3 0,-1 0,-2 0,-3 0,-1 0,-3 1,-5 0,-1 1,-3 2,-5 1,-1 3,-3 4,-4 2,-1 3,-2 5,-2 2,-1 3,-1 5,-1zm3 3c-1,0 -3,0 -4,0 -1,1 -2,1 -3,2 -1,1 -1,2 -2,3 -1,1 -2,2 -2,4 -1,2 -1,4 -1,5 0,1 1,2 1,3 1,1 2,1 2,2 1,0 2,0 3,0 1,0 2,0 2,0 1,0 2,-1 2,-1 1,-1 2,-1 2,-2 1,0 1,-1 1,-2 0,0 1,-1 1,-1 0,-1 0,-2 1,-2 0,-1 0,-2 0,-2 0,-1 1,-2 1,-2 0,-1 0,-2 0,-2 0,-1 1,-1 1,-1 0,-1 0,-1 -1,-2 0,0 0,-1 0,-1 -1,0 -1,-1 -2,-1 -1,0 -1,0 -2,0zm60 -3c0,0 0,0 0,0 0,0 0,0 0,0 0,1 0,1 -1,1 -1,1 -2,2 -4,2 -1,1 -2,2 -3,3 0,2 0,3 0,4 0,1 0,2 -1,3 0,2 -1,3 -1,4 -1,2 -2,3 -3,4 1,0 1,1 1,1 0,1 1,1 1,1 1,1 1,1 2,1 0,0 1,0 2,0 1,0 2,0 3,0 1,-1 3,-2 4,-3 1,0 1,-2 2,-3 1,-1 1,-2 2,-4 1,-2 1,-4 1,-6 0,-2 -1,-3 -1,-5 0,0 -1,0 -1,0 0,-1 0,-1 0,-1 0,0 0,0 0,-1 0,0 0,0 0,0 0,-1 0,-1 0,-1 1,0 1,0 1,0 1,0 1,0 2,0 1,0 2,0 3,0 1,0 3,0 5,-1 2,0 4,-1 5,-1 2,-1 4,-2 5,-2 2,-1 3,-2 5,-3 1,-1 2,-2 3,-3 1,-1 2,-2 3,-3 1,-1 2,-2 2,-3 1,-2 1,-2 2,-3 0,-1 0,-2 0,-2 0,-1 -1,-1 -1,-2 0,0 -1,-1 -1,-1 0,0 -1,-1 -1,-1 0,-1 -1,-1 -1,-2 0,0 0,-1 0,-1 1,-2 1,-3 2,-4 1,0 3,-1 4,-1 1,0 1,0 2,1 1,0 1,0 1,1 1,0 1,1 1,2 0,1 0,2 0,3 -1,1 -1,3 -2,4 -1,2 -2,4 -3,6 -2,1 -3,3 -5,5 -2,2 -4,4 -6,5 -2,2 -4,3 -6,4 -2,1 -4,2 -6,2 -2,1 -3,1 -5,1 -1,1 -2,1 -3,1 1,0 1,0 1,1 1,0 1,1 2,2 0,1 0,2 0,3 0,2 0,3 0,5 -1,2 -2,4 -3,6 -1,1 -3,3 -5,4 -1,1 -3,2 -5,2 -2,1 -4,1 -6,1 -2,0 -3,0 -5,0 -1,-1 -2,-1 -3,-2 -2,2 -5,4 -7,5 -3,1 -5,2 -8,2 -2,0 -4,0 -6,-1 -2,0 -3,-1 -4,-3 -1,-1 -2,-3 -2,-5 -1,-2 0,-4 0,-7 1,-3 3,-5 4,-8 2,-2 4,-4 6,-6 2,-1 4,-2 6,-3 3,-1 5,-1 7,-1 2,0 3,0 4,0 1,0 2,1 3,1 1,1 1,2 2,2 0,1 1,2 1,3 1,-1 2,-1 3,-2 1,0 1,0 2,-1 1,0 2,0 2,0 1,0 1,0 2,0zm-18 -2c-2,0 -3,0 -5,1 -2,1 -3,2 -4,4 -2,1 -3,3 -4,5 -2,2 -3,5 -4,8 0,2 0,4 0,5 -1,2 0,3 0,4 0,1 1,2 2,3 1,0 2,0 3,0 1,0 3,0 4,0 1,-1 2,-1 3,-2 1,-1 2,-2 3,-3 0,-1 1,-2 2,-3 0,-1 0,-2 0,-3 0,-1 0,-2 0,-3 1,-2 1,-3 2,-5 1,-1 2,-2 3,-3 0,-3 0,-5 -1,-6 -1,-1 -2,-2 -4,-2z"/>
   <path class="fil0" d="M3 98c1,0 2,0 3,0 2,0 3,-1 5,-2 1,-1 1,-2 1,-4 0,-2 0,-3 -1,-4 -1,-1 -3,-2 -5,-2 -1,0 -2,0 -3,1l0 11zm1 -10c1,0 1,-1 2,-1 3,0 5,2 5,5 0,3 -2,5 -5,5 -1,0 -1,0 -2,-1l0 -8zm24 6l1 4 1 0 -3 -12 -2 0 -4 12 2 0 1 -4 4 0zm-4 -1l1 -3c0,-1 1,-2 1,-2l0 0c0,0 0,1 0,2l1 3 -3 0zm16 5l2 0 0 -5 1 0c1,0 2,0 2,2 1,1 1,2 1,3l2 0c-1,-1 -1,-2 -1,-3 -1,-2 -1,-2 -2,-3l0 0c1,0 2,-1 2,-3 0,-1 0,-1 -1,-2 0,0 -1,-1 -3,-1 -1,0 -2,0 -3,1l0 11zm2 -10c0,-1 0,-1 1,-1 2,0 3,1 3,3 0,1 -1,2 -3,2l-1 0 0 -4zm15 -2l0 12 2 0 0 -12 -2 0zm12 0l0 7c0,3 2,5 4,5 3,0 5,-2 5,-5l0 -7 -2 0 0 7c0,3 -1,4 -3,4 -1,0 -2,-1 -2,-4l0 -7 -2 0zm19 11c0,0 2,1 3,1 2,0 4,-2 4,-3 0,-2 -1,-3 -3,-4 -2,0 -3,-1 -3,-2 0,-1 1,-2 3,-2 1,0 1,1 2,1l0 -1c0,-1 -1,-1 -2,-1 -3,0 -4,1 -4,3 0,2 1,3 3,3 1,1 2,2 2,3 0,1 -1,2 -2,2 -1,0 -2,-1 -3,-1l0 1zm16 1l8 0 0 -2 -6 0 0 0 6 -9 0 -1 -8 0 0 2 6 0 0 0 -6 9 0 1z"/>
   <path class="fil0" d="M153 97c0,0 2,1 3,1 2,0 4,-2 4,-3 0,-2 -1,-3 -3,-4 -2,0 -2,-1 -2,-2 0,-1 0,-2 2,-2 1,0 1,1 2,1l0 -1c0,-1 -1,-1 -2,-1 -2,0 -4,1 -4,3 0,2 1,3 3,3 2,1 2,2 2,3 0,1 -1,2 -2,2 -1,0 -2,-1 -3,-1l0 1zm25 1l1 0 -1 -12 -2 0 -2 6c0,1 -1,2 -1,4l0 0c0,-2 -1,-3 -1,-4l-2 -6 -2 0 -1 12 2 0 0 -5c0,-2 0,-4 0,-5l0 0c1,1 1,3 2,4l2 6 1 0 2 -6c0,-1 1,-3 1,-4l0 0c0,1 0,3 0,5l1 5zm14 -12c-3,0 -5,3 -5,6 0,3 2,6 5,6 3,0 5,-2 5,-6 0,-3 -2,-6 -5,-6zm0 1c2,0 3,3 3,5 0,2 -1,5 -3,5 -3,0 -4,-3 -4,-5 0,-2 1,-5 4,-5zm13 11l6 0 0 -2 -5 0 0 -10 -1 0 0 12zm19 -12l-2 0 -4 12 2 0 1 -4 4 0 1 4c0,0 -1,1 -1,2 0,1 1,1 2,1 0,0 1,0 1,0l0 -1c-1,0 -1,0 -1,0 -1,0 -1,0 -1,-1 0,0 1,-1 1,-1l1 0 -4 -12zm-3 7l1 -3c0,-1 1,-2 1,-2l0 0c0,0 0,1 0,2l1 3 -3 0zm23 -1l-4 0 0 1 2 0 0 3c0,0 -1,1 -2,1 -2,0 -4,-2 -4,-5 0,-3 2,-5 4,-5 2,0 2,1 3,1l0 -1c0,0 -1,-1 -3,-1 -3,0 -6,3 -6,6 0,2 1,3 2,4 1,1 2,2 4,2 2,0 3,-1 4,-1l0 -5z"/>
  </g>
 </g>
</svg>
